<svg width="18" height="18" viewBox="0 0 18 18" fill="none" xmlns="http://www.w3.org/2000/svg">
<path d="M8.57415 -4.95911e-05C13.3151 -4.95911e-05 17.1482 3.80403 17.1482 8.50907C17.1482 13.2141 13.3151 17.0182 8.57415 17.0182C3.83321 17.0182 0.000108719 13.2141 0.000108719 8.50907C0.000108719 3.80403 3.83321 -4.95911e-05 8.57415 -4.95911e-05ZM8.57415 16.0171C12.7603 16.0171 16.1395 12.6635 16.1395 8.50907C16.1395 4.35462 12.7603 1.00102 8.57415 1.00102C4.388 1.00102 1.00882 4.35462 1.00882 8.50907C1.00882 12.6635 4.388 16.0171 8.57415 16.0171Z" fill="black"/>
<path d="M8.44237 4.00426L9.07849 4.65444L5.30719 8.50909L9.07849 12.3637L8.44237 13.0139L4.03494 8.50909L8.44237 4.00426Z" fill="black"/>
<path d="M13.1134 9.00964H4.03501V8.00857H13.1134V9.00964Z" fill="black"/>
</svg>
