<svg width="18" height="18" viewBox="0 0 18 18" fill="none" xmlns="http://www.w3.org/2000/svg">
<path d="M8.57404 17.0182C3.8331 17.0182 0 13.2142 0 8.50912C0 3.80408 3.8331 0 8.57404 0C13.315 0 17.1481 3.80408 17.1481 8.50912C17.1481 13.2142 13.315 17.0182 8.57404 17.0182ZM8.57404 1.00107C4.38789 1.00107 1.00871 4.35467 1.00871 8.50912C1.00871 12.6636 4.38789 16.0172 8.57404 16.0172C12.7602 16.0172 16.1394 12.6636 16.1394 8.50912C16.1394 4.35467 12.7602 1.00107 8.57404 1.00107Z" fill="#FFF7F7"/>
<path d="M8.70583 13.0141L8.0697 12.3639L11.841 8.50922L8.0697 4.65458L8.70583 4.00439L13.1133 8.50922L8.70583 13.0141Z" fill="white"/>
<path d="M4.03479 8.00854H13.1132V9.00962H4.03479V8.00854Z" fill="#FFF7F7"/>
</svg>
