<svg width="430" height="475" viewBox="0 0 430 475" fill="none" xmlns="http://www.w3.org/2000/svg">
<path opacity="0.7" d="M-23.6907 121.772V173.99L25.9063 184.913L39.1728 194.268V147.49L28.6999 135.015L-23.6907 121.772Z" fill="white"/>
<path opacity="0.7" d="M-25.0809 230.125L28.7 240.264L39.8613 248.068V297.95L29.3884 288.594L-31.3699 278.47L-25.0809 230.125Z" fill="white"/>
<path d="M-31.3699 338.492L17.5254 340.827L39.1728 346.295V397.745L19.6173 392.291L-36.2555 389.941L-31.3699 338.492Z" fill="white"/>
<path d="M-29.2648 444.523L19.6173 447.642L39.8613 452.312L39.1728 501.426L11.9381 495.972H-33.4619L-29.2648 444.523Z" fill="white"/>
<path opacity="0.4" d="M-41.8428 181.011L24.5029 193.485L36.3791 202.841L4.24567 214.532L-1.34161 222.336L-43.9347 216.882L-41.8428 181.011Z" fill="#92E3E3"/>
<path opacity="0.4" d="M-43.9347 285.476L26.4359 293.28L37.7694 301.852L3.5572 311.991L-23.6907 330.702L-44.6364 329.919L-43.9347 285.476Z" fill="#92E3E3"/>
<path opacity="0.4" d="M-43.233 395.409L15.4202 398.528L33.5855 400.863L7.03931 404.765L-39.7508 437.503L-40.4393 403.198L-43.233 395.409Z" fill="#92E3E3"/>
<path opacity="0.4" d="M18.2139 315.893L45.528 308.902L46.2165 275.381L95.8003 269.912L115.991 310.38L98.488 291.713L56.5834 301.852L97.7995 304.187L118.083 340.827L102.023 322.899L60.8202 333.038L100.633 334.516L120.175 371.17L102.725 354.084L59.4168 365.066L102.725 367.401L120.175 398.587L101.321 386.113L59.4168 396.237L101.321 398.587L120.175 430.541C120.175 430.541 107.61 418.85 104.115 418.067C100.62 417.284 60.092 426.595 60.092 426.595L101.997 430.482C101.997 430.482 122.942 464.787 120.149 461.668C117.355 458.549 106.22 450.79 104.115 450.79C102.01 450.79 59.4168 457.027 59.4168 457.027L102.725 464.092C102.725 464.092 133.455 496.83 131.35 496.046C129.245 495.263 102.725 482.744 102.725 482.744L62.9121 486.646L102.725 499.121L131.35 524.069C131.35 524.069 104.87 517.049 101.321 515.497C97.773 513.945 61.5219 518.615 61.5219 518.615L102.023 526.404L140.419 556.807L107.597 548.234L69.2011 552.136L111.106 561.492C111.106 561.492 148.813 572.4 143.928 572.4C139.042 572.4 17.5254 565.394 17.5254 565.394L18.2139 519.399L45.528 510.013V440.621L14.798 435.167C14.798 435.167 12.6928 414.889 16.1881 413.337C19.6835 411.786 46.852 407.1 46.852 407.1L45.528 341.61L16.1881 333.038L18.2139 315.893Z" fill="#92E3E3"/>
<path opacity="0.4" d="M153.182 396.385L183.039 392.867V574.72L159.988 576.464L157.366 560.679L152.653 552.491L159.471 539.633L152.653 523.848L161.563 509.23L154.228 500.451V492.277L158.412 489.351V482.33L154.228 477.66L153.699 467.137L159.988 458.949L153.182 449.002L154.228 439.646L158.412 434.975L153.182 419.767L154.745 413.337H159.471L155.274 403.982L153.182 396.385Z" fill="#92E3E3"/>
<path opacity="0.4" d="M285.344 415.288V539.248L276.963 478.044L283.596 470.639L285.344 415.288Z" fill="#92E3E3"/>
<path opacity="0.4" d="M385.558 458.165V534.179L375.085 584.076H392.548V479.611L404.769 466.738V456.998L385.558 458.165Z" fill="#92E3E3"/>
<path opacity="0.4" d="M408.264 470.64L405.113 481.163V564.581L409.654 526.774L408.264 470.64Z" fill="#92E3E3"/>
<path d="M-39.9097 112.417L29.4149 131.113L42.496 145.938V200.505L9.67408 213.763V233.243L29.4149 237.559L42.496 247.284V304.187L9.67408 311.208V337.708L29.4149 341.152L42.496 346.295V403.198L9.67408 406.317V442.883L29.4149 445.114L42.496 448.425V506.895L9.67408 512.349V558.344" stroke="#263238" stroke-linecap="round" stroke-linejoin="round"/>
<path d="M9.67407 213.763L-7.08777 204.407L-46.8872 200.505" stroke="#263238" stroke-linecap="round" stroke-linejoin="round"/>
<path d="M9.67407 233.243L-46.8872 222.336" stroke="#263238" stroke-linecap="round" stroke-linejoin="round"/>
<path d="M9.67406 311.208L-10.5699 304.971L-48.2906 300.3" stroke="#263238" stroke-linecap="round" stroke-linejoin="round"/>
<path d="M9.67407 406.317L-16.1572 403.198L-46.1855 401.646" stroke="#263238" stroke-linecap="round" stroke-linejoin="round"/>
<path d="M9.67406 337.708L-50.3826 334.59" stroke="#263238" stroke-linecap="round" stroke-linejoin="round"/>
<path d="M9.67407 442.883L-46.8872 441.405" stroke="#263238" stroke-linecap="round" stroke-linejoin="round"/>
<path d="M42.496 304.187L26.4359 293.28L-48.9791 283.14" stroke="#263238" stroke-linecap="round" stroke-linejoin="round"/>
<path d="M42.496 200.505L26.4359 188.815L-44.0936 175.557" stroke="#263238" stroke-linecap="round" stroke-linejoin="round"/>
<path d="M42.496 403.198L19.4584 398.528L-50.3826 393.843" stroke="#263238" stroke-linecap="round" stroke-linejoin="round"/>
<path d="M52.5981 273.001L99.3883 265.212L155.261 332.653L147.953 337.708V347.064" stroke="#263238" stroke-linecap="round" stroke-linejoin="round"/>
<path d="M53.2999 303.877L100.09 296.96L155.261 358.193L148.654 363.44V372.796" stroke="#263238" stroke-linecap="round" stroke-linejoin="round"/>
<path d="M56.0935 458.269L103.585 455.667L155.261 485.937L150.045 488.952V500.658" stroke="#263238" stroke-linecap="round" stroke-linejoin="round"/>
<path d="M56.0935 427.393L103.585 423.92L155.261 460.397L149.356 463.235V472.59" stroke="#263238" stroke-linecap="round" stroke-linejoin="round"/>
<path d="M56.0935 396.503L103.585 392.172L155.261 434.842L149.356 438.286V449.194" stroke="#263238" stroke-linecap="round" stroke-linejoin="round"/>
<path d="M56.0935 365.628L103.585 360.44L155.261 409.288L149.356 411.771V423.477" stroke="#263238" stroke-linecap="round" stroke-linejoin="round"/>
<path d="M56.0935 334.752L103.585 328.692L155.261 383.748L148.654 388.389V399.311" stroke="#263238" stroke-linecap="round" stroke-linejoin="round"/>
<path d="M158.598 394.626L184.429 390.724L226.333 425.028V582.509" stroke="#263238" stroke-linecap="round" stroke-linejoin="round"/>
<path d="M182.337 396.961V579.982" stroke="#263238" stroke-linecap="round" stroke-linejoin="round"/>
<path d="M192.81 408.652V565.365" stroke="#263238" stroke-linecap="round" stroke-linejoin="round"/>
<path d="M203.283 420.358V570.818" stroke="#263238" stroke-linecap="round" stroke-linejoin="round"/>
<path d="M213.769 426.595V572.37" stroke="#263238" stroke-linecap="round" stroke-linejoin="round"/>
<path d="M221.448 432.049V586.411" stroke="#263238" stroke-linecap="round" stroke-linejoin="round"/>
<path d="M168.369 403.982V573.154" stroke="#263238" stroke-linecap="round" stroke-linejoin="round"/>
<path d="M345.057 552.89V505.328H322.006V531.829H311.89V497.923L299.657 484.281V452.312L289.184 439.838V407.884L283.596 414.121V464.787L274.527 474.926V535.731H264.041" stroke="#263238" stroke-linecap="round" stroke-linejoin="round"/>
<path d="M289.885 451.544V580.174" stroke="#263238" stroke-linecap="round" stroke-linejoin="round"/>
<path d="M350.644 525.606H366.704V478.044L382.076 455.431H390.456V409.436H395.342V455.431H406.517V468.689L395.342 479.611V582.509" stroke="#263238" stroke-linecap="round" stroke-linejoin="round"/>
<path d="M463.078 543.534V439.838H435.843L410.7 464.787V521.704" stroke="#263238" stroke-linecap="round" stroke-linejoin="round"/>
<path d="M382.076 455.431V542.751" stroke="#263238" stroke-linecap="round" stroke-linejoin="round"/>
<path d="M428.852 599.019H416.685C416.685 599.019 418.711 438.109 418.711 354.424C418.655 353.792 418.718 353.153 418.896 352.55C419.075 351.946 419.364 351.391 419.746 350.92C420.129 350.448 420.595 350.072 421.116 349.814C421.636 349.557 422.199 349.423 422.769 349.423C423.338 349.423 423.901 349.557 424.422 349.814C424.942 350.072 425.409 350.448 425.791 350.92C426.173 351.391 426.463 351.946 426.641 352.55C426.82 353.153 426.883 353.792 426.827 354.424C426.84 428.428 428.852 599.019 428.852 599.019Z" fill="#92E3E3"/>
<mask id="mask0_30_1215" style="mask-type:luminance" maskUnits="userSpaceOnUse" x="416" y="349" width="13" height="251">
<path d="M428.852 599.019H416.685C416.685 599.019 418.711 438.109 418.711 354.424C418.655 353.792 418.718 353.153 418.896 352.55C419.075 351.946 419.364 351.391 419.746 350.92C420.129 350.448 420.595 350.072 421.116 349.814C421.636 349.557 422.199 349.423 422.769 349.423C423.338 349.423 423.901 349.557 424.422 349.814C424.942 350.072 425.409 350.448 425.791 350.92C426.173 351.391 426.463 351.946 426.641 352.55C426.82 353.153 426.883 353.792 426.827 354.424C426.84 428.428 428.852 599.019 428.852 599.019Z" fill="white"/>
</mask>
<g mask="url(#mask0_30_1215)">
<path opacity="0.4" d="M428.852 599.019H416.685C416.685 599.019 418.711 438.109 418.711 354.424C418.655 353.792 418.718 353.153 418.896 352.55C419.075 351.946 419.364 351.391 419.746 350.92C420.129 350.448 420.595 350.072 421.116 349.814C421.636 349.557 422.199 349.423 422.769 349.423C423.338 349.423 423.901 349.557 424.422 349.814C424.942 350.072 425.409 350.448 425.791 350.92C426.173 351.391 426.463 351.946 426.641 352.55C426.82 353.153 426.883 353.792 426.827 354.424C426.84 428.428 428.852 599.019 428.852 599.019Z" fill="black"/>
</g>
<path d="M428.852 599.019H416.685C416.685 599.019 418.711 438.109 418.711 354.424C418.655 353.792 418.718 353.153 418.896 352.55C419.075 351.946 419.364 351.391 419.746 350.92C420.129 350.448 420.595 350.072 421.116 349.814C421.636 349.557 422.199 349.423 422.769 349.423C423.338 349.423 423.901 349.557 424.422 349.814C424.942 350.072 425.409 350.448 425.791 350.92C426.173 351.391 426.463 351.946 426.641 352.55C426.82 353.153 426.883 353.792 426.827 354.424C426.84 428.428 428.852 599.019 428.852 599.019Z" stroke="#263238" stroke-linecap="round" stroke-linejoin="round"/>
<path d="M434.029 261.606C433.561 264.562 433.12 267.479 432.705 270.356L452.115 265.478C451.268 267.671 449.971 269.61 448.329 271.139L458.364 271.538C458.32 272.963 457.809 274.321 456.928 275.353C456.047 276.385 454.858 277.021 453.585 277.14L455.319 281.116C458.415 280.425 461.606 280.462 464.688 281.226C467.77 281.989 470.676 283.462 473.22 285.55C469.966 287.977 466.116 289.212 462.204 289.082C467.723 290.359 473.01 292.668 477.84 295.91C479.482 297.004 481.283 299.221 480.184 300.98L473.14 300.389C474.984 303.442 477.442 305.973 480.316 307.779L473.193 308.06C473.543 310.236 474.536 312.218 476.013 313.691L470.36 314.711C474.698 319.956 477.733 326.375 479.164 333.333L471.446 330.776C474.719 332.985 477.43 336.095 479.317 339.809C481.204 343.523 482.205 347.716 482.223 351.986C480.082 351.456 478.154 350.164 476.728 348.305C480.045 356.833 481.805 366.013 481.905 375.309C479.108 371.835 475.209 369.714 471.035 369.397C472.682 370.981 473.955 372.993 474.74 375.257C475.525 377.52 475.798 379.964 475.537 382.373C475.087 379.92 471.565 379.728 470.241 381.723C468.917 383.718 469.208 386.556 470.016 388.906C468.434 386.937 467.119 384.721 466.11 382.329C467.528 389.056 467.895 396.006 467.196 402.873C463.393 399.692 460.47 395.379 458.762 390.428C458.939 395.452 459.632 400.435 460.827 405.282C458.397 403.873 456.255 401.917 454.535 399.539C452.815 397.161 451.554 394.411 450.831 391.463C449.928 396.826 449.821 402.319 450.513 407.721L444.436 390.783L443.867 411.579C441.843 408.912 440.188 405.923 438.955 402.711L439.034 406.908C436.769 405.686 434.799 403.877 433.288 401.632C433.288 403.405 433.354 405.179 433.394 406.952C430.42 404.108 427.965 400.651 426.165 396.769C422.657 400.465 420.398 405.398 419.77 410.736C418.593 408.886 417.791 406.773 417.421 404.542C417.05 402.311 417.12 400.016 417.625 397.818L407.033 404.07C406.586 400.048 407.534 395.988 409.681 392.719C406.327 394.776 403.214 397.288 400.413 400.198C400.12 398.709 400.157 397.162 400.519 395.692C400.881 394.222 401.558 392.872 402.492 391.759C395.869 398.734 387.116 402.634 378.011 402.666C380.117 399.521 382.655 396.768 385.531 394.508C382.345 395.203 379.304 396.562 376.568 398.513L383.188 388.877C376.942 388.02 370.607 388.522 364.533 390.355C367.578 385.51 371.199 381.149 375.297 377.392C371.159 376.819 366.96 377.196 362.957 378.501C363.516 375.343 364.684 372.358 366.381 369.754C368.077 367.151 370.261 364.991 372.781 363.425L353.967 370.727C360.799 359.538 368.015 347.951 378.607 341.329C372.374 341.215 366.141 341.576 359.952 342.408C362.134 338.505 365.383 335.489 369.22 333.806C363.52 333.029 357.737 333.784 352.352 336.008C353.941 332.928 356.382 330.504 359.308 329.101C362.233 327.697 365.488 327.387 368.584 328.219C364.187 327.046 360.001 325.047 356.205 322.307L370.385 321.14L356.827 308.902C362.942 309.437 368.966 310.879 374.741 313.188C371.33 307.569 368.273 301.692 365.592 295.6L372.808 302.857L373.006 298.911C374.022 298.728 375.063 298.842 376.028 299.241C376.993 299.639 377.849 300.31 378.514 301.187C378.385 293.56 375.843 286.23 371.338 280.495C380.824 281.043 390.025 284.306 398.056 289.969C398.419 283.036 397.155 276.118 394.389 269.898C399.199 271.318 403.655 273.947 407.417 277.583C406.636 271.481 404.916 265.576 402.333 260.128C404.353 260.733 406.212 261.872 407.754 263.449C409.296 265.026 410.475 266.995 411.19 269.188C412.046 268.319 412.729 267.26 413.196 266.079C413.664 264.898 413.905 263.621 413.905 262.33C414.765 264.784 415.639 267.222 416.553 269.72C418.009 267.237 419.47 264.774 420.935 262.33C420.67 262.774 423.821 269.543 424.258 270.459C427.727 268.08 430.812 264.562 434.029 261.606Z" fill="#92E3E3"/>
<mask id="mask1_30_1215" style="mask-type:luminance" maskUnits="userSpaceOnUse" x="352" y="260" width="131" height="152">
<path d="M434.029 261.606C433.561 264.562 433.12 267.479 432.705 270.356L452.115 265.478C451.268 267.671 449.971 269.61 448.329 271.139L458.364 271.538C458.32 272.963 457.809 274.321 456.928 275.353C456.047 276.385 454.858 277.021 453.585 277.14L455.319 281.116C458.415 280.425 461.606 280.462 464.688 281.226C467.77 281.989 470.676 283.462 473.22 285.55C469.966 287.977 466.116 289.212 462.204 289.082C467.723 290.359 473.01 292.668 477.84 295.91C479.482 297.004 481.283 299.221 480.184 300.98L473.14 300.389C474.984 303.442 477.442 305.973 480.316 307.779L473.193 308.06C473.543 310.236 474.536 312.218 476.013 313.691L470.36 314.711C474.698 319.956 477.733 326.375 479.164 333.333L471.446 330.776C474.719 332.985 477.43 336.095 479.317 339.809C481.204 343.523 482.205 347.716 482.223 351.986C480.082 351.456 478.154 350.164 476.728 348.305C480.045 356.833 481.805 366.013 481.905 375.309C479.108 371.835 475.209 369.714 471.035 369.397C472.682 370.981 473.955 372.993 474.74 375.257C475.525 377.52 475.798 379.964 475.537 382.373C475.087 379.92 471.565 379.728 470.241 381.723C468.917 383.718 469.208 386.556 470.016 388.906C468.434 386.937 467.119 384.721 466.11 382.329C467.528 389.056 467.895 396.006 467.196 402.873C463.393 399.692 460.47 395.379 458.762 390.428C458.939 395.452 459.632 400.435 460.827 405.282C458.397 403.873 456.255 401.917 454.535 399.539C452.815 397.161 451.554 394.411 450.831 391.463C449.928 396.826 449.821 402.319 450.513 407.721L444.436 390.783L443.867 411.579C441.843 408.912 440.188 405.923 438.955 402.711L439.034 406.908C436.769 405.686 434.799 403.877 433.288 401.632C433.288 403.405 433.354 405.179 433.394 406.952C430.42 404.108 427.965 400.651 426.165 396.769C422.657 400.465 420.398 405.398 419.77 410.736C418.593 408.886 417.791 406.773 417.421 404.542C417.05 402.311 417.12 400.016 417.625 397.818L407.033 404.07C406.586 400.048 407.534 395.988 409.681 392.719C406.327 394.776 403.214 397.288 400.413 400.198C400.12 398.709 400.157 397.162 400.519 395.692C400.881 394.222 401.558 392.872 402.492 391.759C395.869 398.734 387.116 402.634 378.011 402.666C380.117 399.521 382.655 396.768 385.531 394.508C382.345 395.203 379.304 396.562 376.568 398.513L383.188 388.877C376.942 388.02 370.607 388.522 364.533 390.355C367.578 385.51 371.199 381.149 375.297 377.392C371.159 376.819 366.96 377.196 362.957 378.501C363.516 375.343 364.684 372.358 366.381 369.754C368.077 367.151 370.261 364.991 372.781 363.425L353.967 370.727C360.799 359.538 368.015 347.951 378.607 341.329C372.374 341.215 366.141 341.576 359.952 342.408C362.134 338.505 365.383 335.489 369.22 333.806C363.52 333.029 357.737 333.784 352.352 336.008C353.941 332.928 356.382 330.504 359.308 329.101C362.233 327.697 365.488 327.387 368.584 328.219C364.187 327.046 360.001 325.047 356.205 322.307L370.385 321.14L356.827 308.902C362.942 309.437 368.966 310.879 374.741 313.188C371.33 307.569 368.273 301.692 365.592 295.6L372.808 302.857L373.006 298.911C374.022 298.728 375.063 298.842 376.028 299.241C376.993 299.639 377.849 300.31 378.514 301.187C378.385 293.56 375.843 286.23 371.338 280.495C380.824 281.043 390.025 284.306 398.056 289.969C398.419 283.036 397.155 276.118 394.389 269.898C399.199 271.318 403.655 273.947 407.417 277.583C406.636 271.481 404.916 265.576 402.333 260.128C404.353 260.733 406.212 261.872 407.754 263.449C409.296 265.026 410.475 266.995 411.19 269.188C412.046 268.319 412.729 267.26 413.196 266.079C413.664 264.898 413.905 263.621 413.905 262.33C414.765 264.784 415.639 267.222 416.553 269.72C418.009 267.237 419.47 264.774 420.935 262.33C420.67 262.774 423.821 269.543 424.258 270.459C427.727 268.08 430.812 264.562 434.029 261.606Z" fill="white"/>
</mask>
<g mask="url(#mask1_30_1215)">
<path opacity="0.2" d="M476.675 348.217C479.993 356.744 481.752 365.924 481.852 375.22C479.055 371.746 475.156 369.626 470.982 369.308C472.629 370.892 473.902 372.905 474.687 375.168C475.472 377.431 475.746 379.875 475.484 382.285C475.034 379.831 471.512 379.639 470.188 381.634C468.864 383.63 469.155 386.467 469.963 388.817C468.382 386.848 467.066 384.633 466.057 382.24C467.475 388.968 467.842 395.918 467.143 402.785C463.34 399.603 460.417 395.29 458.709 390.34C458.886 395.363 459.579 400.347 460.774 405.194C458.345 403.784 456.202 401.829 454.482 399.45C452.762 397.072 451.501 394.323 450.778 391.374C449.875 396.738 449.768 402.23 450.46 407.632L444.383 390.695C444.198 397.592 444.008 404.524 443.814 411.49C441.791 408.823 440.135 405.834 438.902 402.622L438.981 406.819C436.716 405.598 434.746 403.788 433.235 401.543C433.235 403.317 433.301 405.09 433.341 406.864C430.367 404.02 427.913 400.562 426.112 396.68C422.604 400.376 420.345 405.309 419.717 410.648C418.54 408.798 417.738 406.684 417.368 404.453C416.997 402.222 417.067 399.928 417.572 397.73L406.98 403.982C406.533 399.96 407.481 395.899 409.628 392.631C406.274 394.687 403.161 397.199 400.36 400.109C400.067 398.62 400.104 397.073 400.466 395.603C400.828 394.133 401.505 392.783 402.439 391.67C395.816 398.645 387.063 402.545 377.958 402.578C380.064 399.433 382.602 396.679 385.478 394.419C382.292 395.114 379.251 396.473 376.515 398.424L383.135 388.788C376.889 387.931 370.554 388.433 364.48 390.266C367.525 385.421 371.146 381.06 375.244 377.304C374.106 377.141 372.961 377.052 371.815 377.038C372.522 374.574 373.78 372.351 375.469 370.579C376.638 373.125 378.244 375.39 380.195 377.245C380.195 376.092 380.195 374.924 380.195 373.771C381.186 375.24 382.475 376.425 383.956 377.23C383.956 376.314 383.956 375.382 383.956 374.466C384.759 376.604 385.844 378.597 387.173 380.378C387.292 375.841 387.425 371.303 387.544 366.751L391.516 377.851C391.291 376.048 389.94 367.505 391.688 366.426C392.189 366.241 392.702 366.103 393.224 366.012C395.051 365.332 394.746 362.613 396.083 361.46C397.421 360.307 399.751 360.573 401.459 359.272C404.107 357.292 406.186 352.281 403.127 349.503C402.904 349.343 402.715 349.131 402.571 348.882C402.253 348.128 402.995 347.404 403.63 346.975L405.126 346C405.436 345.857 405.69 345.595 405.841 345.261C406.08 344.64 405.59 343.975 405.073 343.62C404.557 343.266 403.922 343.014 403.644 342.408C403.127 341.3 404.107 340.103 404.968 339.26C405.828 338.418 406.543 336.895 405.709 336.068C405.441 335.876 405.137 335.754 404.821 335.71C404.505 335.667 404.184 335.703 403.882 335.816L396.335 337.294L401.909 330.747C396.266 330.73 390.628 330.394 385.015 329.742C386.851 324.983 388.696 320.228 390.549 315.479L382.486 315.583L384.578 312.627C381.721 312.644 378.96 311.475 376.833 309.345C376.517 309.083 376.293 308.707 376.197 308.281C376.193 308.033 376.237 307.787 376.326 307.56C376.415 307.333 376.547 307.13 376.713 306.966C378.13 305.207 380.394 304.483 381.745 302.68C382.883 301.202 383.227 299.118 383.982 297.344C385.664 293.457 388.272 294.684 391.33 294.772C392.323 294.772 403.246 293.871 403.313 294.58L403.193 286.303C404.1 286.767 405.111 286.911 406.093 286.717C406.719 286.465 407.295 286.079 407.788 285.579C414.58 279.667 424.708 272.558 433.288 275.233C432.686 271.915 431.454 268.78 429.673 266.04C431.196 264.562 432.679 263.084 434.162 261.695C433.694 264.651 433.253 267.567 432.838 270.444L452.248 265.567C451.4 267.759 450.103 269.698 448.461 271.228L458.497 271.627C458.453 273.052 457.942 274.409 457.061 275.442C456.18 276.474 454.99 277.11 453.717 277.228L455.452 281.204C458.548 280.514 461.738 280.551 464.821 281.315C467.903 282.078 470.809 283.551 473.352 285.638C470.099 288.066 466.248 289.301 462.336 289.171C467.856 290.448 473.142 292.756 477.973 295.999C479.615 297.093 481.415 299.31 480.316 301.069L473.286 300.477C475.124 303.531 477.577 306.062 480.449 307.867L473.326 308.148C473.675 310.324 474.668 312.307 476.146 313.779L470.492 314.799C474.83 320.044 477.866 326.464 479.297 333.422L471.578 330.865C474.852 333.073 477.562 336.184 479.449 339.898C481.337 343.612 482.337 347.805 482.355 352.074C480.127 351.54 478.125 350.18 476.675 348.217Z" fill="black"/>
</g>
<path d="M434.029 261.606C433.561 264.562 433.12 267.479 432.705 270.356L452.115 265.478C451.268 267.671 449.971 269.61 448.329 271.139L458.364 271.538C458.32 272.963 457.809 274.321 456.928 275.353C456.047 276.385 454.858 277.021 453.585 277.14L455.319 281.116C458.415 280.425 461.606 280.462 464.688 281.226C467.77 281.989 470.676 283.462 473.22 285.55C469.966 287.977 466.116 289.212 462.204 289.082C467.723 290.359 473.01 292.668 477.84 295.91C479.482 297.004 481.283 299.221 480.184 300.98L473.14 300.389C474.984 303.442 477.442 305.973 480.316 307.779L473.193 308.06C473.543 310.236 474.536 312.218 476.013 313.691L470.36 314.711C474.698 319.956 477.733 326.375 479.164 333.333L471.446 330.776C474.719 332.985 477.43 336.095 479.317 339.809C481.204 343.523 482.205 347.716 482.223 351.986C480.083 351.456 478.154 350.164 476.728 348.305C480.045 356.833 481.805 366.013 481.905 375.309C479.108 371.835 475.209 369.714 471.035 369.397C472.682 370.981 473.955 372.993 474.74 375.257C475.525 377.52 475.798 379.964 475.537 382.373C475.087 379.92 471.565 379.728 470.241 381.723C468.917 383.718 469.208 386.556 470.016 388.906C468.434 386.937 467.119 384.721 466.11 382.329C467.528 389.056 467.895 396.006 467.196 402.873C463.393 399.692 460.47 395.379 458.762 390.428C458.939 395.452 459.632 400.435 460.827 405.282C458.398 403.873 456.255 401.917 454.535 399.539C452.815 397.161 451.554 394.411 450.831 391.463C449.928 396.826 449.821 402.319 450.513 407.721L444.436 390.783L443.867 411.579C441.843 408.912 440.188 405.923 438.955 402.711L439.034 406.908C436.769 405.686 434.799 403.877 433.288 401.632C433.288 403.405 433.354 405.179 433.394 406.952C430.42 404.108 427.965 400.651 426.165 396.769C422.657 400.465 420.398 405.398 419.77 410.736C418.593 408.886 417.791 406.773 417.421 404.542C417.05 402.311 417.12 400.016 417.625 397.818L407.033 404.07C406.586 400.048 407.534 395.988 409.681 392.719C406.327 394.776 403.214 397.288 400.413 400.198C400.12 398.709 400.157 397.162 400.519 395.692C400.881 394.222 401.558 392.872 402.492 391.759C395.869 398.734 387.116 402.634 378.011 402.666C380.117 399.521 382.655 396.768 385.531 394.508C382.345 395.203 379.304 396.562 376.568 398.513L383.188 388.877C376.942 388.02 370.607 388.522 364.533 390.355C367.578 385.51 371.199 381.149 375.297 377.392C371.159 376.819 366.96 377.196 362.957 378.501C363.516 375.343 364.684 372.358 366.381 369.754C368.077 367.151 370.261 364.991 372.781 363.425L353.967 370.727C360.799 359.538 368.015 347.951 378.607 341.329C372.374 341.215 366.141 341.576 359.952 342.408C362.134 338.505 365.383 335.489 369.22 333.806C363.52 333.029 357.737 333.784 352.352 336.008C353.941 332.928 356.382 330.504 359.308 329.101C362.233 327.697 365.488 327.387 368.584 328.219C364.187 327.046 360.001 325.047 356.205 322.307L370.385 321.14L356.827 308.902C362.942 309.437 368.966 310.879 374.741 313.188C371.33 307.569 368.273 301.692 365.592 295.6L372.808 302.857L373.006 298.911C374.022 298.728 375.063 298.842 376.028 299.241C376.993 299.639 377.849 300.31 378.514 301.187C378.385 293.56 375.843 286.23 371.338 280.495C380.824 281.043 390.025 284.306 398.056 289.969C398.419 283.036 397.155 276.118 394.389 269.898C399.199 271.318 403.655 273.947 407.417 277.583C406.636 271.481 404.916 265.576 402.333 260.128C404.353 260.733 406.212 261.872 407.754 263.449C409.296 265.026 410.475 266.995 411.19 269.188C412.046 268.319 412.729 267.26 413.196 266.079C413.664 264.898 413.905 263.621 413.905 262.33C414.765 264.784 415.639 267.222 416.553 269.72C418.009 267.237 419.47 264.774 420.935 262.33C420.67 262.774 423.821 269.543 424.258 270.459C427.727 268.08 430.812 264.562 434.029 261.606Z" stroke="#263238" stroke-linecap="round" stroke-linejoin="round"/>
<path opacity="0.2" d="M370.08 377.097C367.654 377.221 365.249 377.668 362.917 378.427C363.13 377.214 363.431 376.023 363.818 374.865L369.882 371.288C369.437 373.205 369.506 375.224 370.08 377.097Z" fill="black"/>
<path opacity="0.2" d="M430.666 306.892C430.031 306.611 429.342 306.375 428.76 306.153C429.108 306.068 429.47 306.092 429.806 306.223C430.143 306.353 430.44 306.585 430.666 306.892Z" fill="black"/>
<path opacity="0.2" d="M370.08 377.097C370.361 378.041 370.767 378.933 371.285 379.743C371.392 378.829 371.574 377.929 371.828 377.053L370.08 377.097Z" fill="black"/>
<path d="M465.514 144.844C464.931 148.628 464.336 152.397 463.74 156.18L488.896 149.854C487.805 152.713 486.127 155.244 483.997 157.244L496.986 157.776C496.926 159.621 496.263 161.377 495.12 162.712C493.978 164.047 492.437 164.868 490.789 165.019L493.04 170.162C497.044 169.26 501.173 169.301 505.162 170.28C509.152 171.26 512.914 173.158 516.21 175.852C511.978 178.958 506.985 180.517 501.924 180.316C509.07 181.984 515.913 184.982 522.168 189.184C524.3 190.662 526.617 193.47 525.2 195.746L516.091 194.993C518.473 198.929 521.647 202.189 525.359 204.511L516.091 204.866C516.534 207.683 517.817 210.251 519.732 212.152L512.41 213.468C518.028 220.256 521.958 228.566 523.81 237.574L513.814 234.278C518.052 237.137 521.562 241.164 524.005 245.973C526.449 250.782 527.745 256.211 527.769 261.739C524.999 261.047 522.504 259.372 520.659 256.965C524.987 267.98 527.3 279.849 527.464 291.875C523.837 287.405 518.794 284.686 513.403 284.293C515.526 286.349 517.166 288.955 518.18 291.882C519.193 294.808 519.548 297.968 519.215 301.083C518.633 297.906 514.092 297.669 512.331 300.241C510.57 302.813 511.007 306.508 512.053 309.538C509.991 307.002 508.285 304.131 506.995 301.024C508.823 309.737 509.298 318.736 508.398 327.628C503.476 323.508 499.691 317.925 497.475 311.518C497.694 318.015 498.582 324.462 500.123 330.732C496.979 328.906 494.206 326.376 491.977 323.298C489.749 320.221 488.114 316.663 487.175 312.848C486.024 319.779 485.889 326.872 486.777 333.851L478.913 311.932L478.158 338.846C475.539 335.369 473.401 331.473 471.816 327.288C471.816 329.106 471.882 330.924 471.922 332.742C468.988 331.164 466.436 328.822 464.481 325.914C464.481 328.205 464.574 330.481 464.614 332.772C460.763 329.099 457.589 324.627 455.266 319.603C450.72 324.381 447.792 330.767 446.978 337.679C445.453 335.289 444.415 332.556 443.937 329.67C443.459 326.785 443.552 323.818 444.211 320.977L430.521 329.047C429.937 323.847 431.159 318.596 433.937 314.371C429.627 317.039 425.625 320.285 422.021 324.037C421.634 322.115 421.673 320.118 422.134 318.217C422.596 316.316 423.466 314.57 424.669 313.129C416.093 322.149 404.768 327.194 392.985 327.244C395.708 323.168 398.997 319.605 402.73 316.691C398.601 317.581 394.661 319.336 391.118 321.864L399.685 309.39C391.596 308.3 383.394 308.973 375.535 311.37C379.476 305.096 384.161 299.448 389.463 294.58C384.106 293.857 378.673 294.36 373.496 296.058C374.225 291.974 375.739 288.115 377.934 284.747C380.128 281.378 382.95 278.582 386.206 276.549L361.858 286.008C370.702 271.523 380.037 256.522 393.753 247.964C385.684 247.806 377.615 248.27 369.603 249.353C372.412 244.318 376.586 240.414 381.519 238.209C374.146 237.199 366.662 238.182 359.7 241.077C361.767 237.102 364.93 233.981 368.717 232.18C372.505 230.379 376.713 229.995 380.712 231.085C375.028 229.572 369.615 226.994 364.705 223.459L383.055 221.981L365.579 206.048C373.498 206.732 381.299 208.596 388.775 211.59C384.366 204.344 380.407 196.769 376.925 188.918L386.273 198.318L386.524 193.204C387.839 192.968 389.186 193.116 390.435 193.634C391.683 194.152 392.79 195.022 393.647 196.16C393.509 186.273 390.224 176.764 384.379 169.334C396.658 170.038 408.567 174.258 418.962 181.587C419.428 172.614 417.794 163.659 414.222 155.604C420.446 157.454 426.213 160.855 431.09 165.551C430.058 157.679 427.819 150.064 424.47 143.041C427.086 143.827 429.494 145.304 431.491 147.346C433.489 149.388 435.018 151.937 435.949 154.776C437.05 153.649 437.929 152.278 438.531 150.752C439.132 149.225 439.443 147.576 439.444 145.908L442.821 155.412L448.501 145.775C448.156 146.352 452.234 155.101 452.804 156.298C457.358 153.195 461.436 148.598 465.514 144.844Z" fill="#92E3E3"/>
<mask id="mask2_30_1215" style="mask-type:luminance" maskUnits="userSpaceOnUse" x="359" y="143" width="169" height="196">
<path d="M465.514 144.844C464.931 148.628 464.336 152.397 463.74 156.18L488.896 149.854C487.805 152.713 486.127 155.244 483.997 157.244L496.986 157.776C496.926 159.621 496.263 161.377 495.12 162.712C493.978 164.047 492.437 164.868 490.789 165.019L493.04 170.162C497.044 169.26 501.173 169.301 505.162 170.28C509.152 171.26 512.914 173.158 516.21 175.852C511.978 178.958 506.985 180.517 501.924 180.316C509.07 181.984 515.913 184.982 522.168 189.184C524.3 190.662 526.617 193.47 525.2 195.746L516.091 194.993C518.473 198.929 521.647 202.189 525.359 204.511L516.091 204.866C516.534 207.683 517.817 210.251 519.732 212.152L512.41 213.468C518.028 220.256 521.958 228.566 523.81 237.574L513.814 234.278C518.052 237.137 521.562 241.164 524.005 245.973C526.449 250.782 527.745 256.211 527.769 261.739C524.999 261.047 522.504 259.372 520.659 256.965C524.987 267.98 527.3 279.849 527.464 291.875C523.837 287.405 518.794 284.686 513.403 284.293C515.526 286.349 517.166 288.955 518.18 291.882C519.193 294.808 519.548 297.968 519.215 301.083C518.633 297.906 514.092 297.669 512.331 300.241C510.57 302.813 511.007 306.508 512.053 309.538C509.991 307.002 508.285 304.131 506.995 301.024C508.823 309.737 509.298 318.736 508.398 327.628C503.476 323.508 499.691 317.925 497.475 311.518C497.694 318.015 498.582 324.462 500.123 330.732C496.979 328.906 494.206 326.376 491.977 323.298C489.749 320.221 488.114 316.663 487.175 312.848C486.024 319.779 485.889 326.872 486.777 333.851L478.913 311.932L478.158 338.846C475.539 335.369 473.401 331.473 471.816 327.288C471.816 329.106 471.882 330.924 471.922 332.742C468.988 331.164 466.436 328.822 464.481 325.914C464.481 328.205 464.574 330.481 464.614 332.772C460.763 329.099 457.589 324.627 455.266 319.603C450.72 324.381 447.792 330.767 446.978 337.679C445.453 335.289 444.415 332.556 443.937 329.67C443.459 326.785 443.552 323.818 444.211 320.977L430.521 329.047C429.937 323.847 431.159 318.596 433.937 314.371C429.627 317.039 425.625 320.285 422.021 324.037C421.634 322.115 421.673 320.118 422.134 318.217C422.596 316.316 423.466 314.57 424.669 313.129C416.093 322.149 404.768 327.194 392.985 327.244C395.708 323.168 398.997 319.605 402.73 316.691C398.601 317.581 394.661 319.336 391.118 321.864L399.685 309.39C391.596 308.3 383.394 308.973 375.535 311.37C379.476 305.096 384.161 299.448 389.463 294.58C384.106 293.857 378.673 294.36 373.496 296.058C374.225 291.974 375.739 288.115 377.934 284.747C380.128 281.378 382.95 278.582 386.206 276.549L361.858 286.008C370.702 271.523 380.037 256.522 393.753 247.964C385.684 247.806 377.615 248.27 369.603 249.353C372.412 244.318 376.586 240.414 381.519 238.209C374.146 237.199 366.662 238.182 359.7 241.077C361.767 237.102 364.93 233.981 368.717 232.18C372.505 230.379 376.713 229.995 380.712 231.085C375.028 229.572 369.615 226.994 364.705 223.459L383.055 221.981L365.579 206.048C373.498 206.732 381.299 208.596 388.775 211.59C384.366 204.344 380.407 196.769 376.925 188.918L386.273 198.318L386.524 193.204C387.839 192.968 389.186 193.116 390.435 193.634C391.683 194.152 392.79 195.022 393.647 196.16C393.509 186.273 390.224 176.764 384.379 169.334C396.658 170.038 408.567 174.258 418.962 181.587C419.428 172.614 417.794 163.659 414.222 155.604C420.446 157.454 426.213 160.855 431.09 165.551C430.058 157.679 427.819 150.064 424.47 143.041C427.086 143.827 429.494 145.304 431.491 147.346C433.489 149.388 435.018 151.937 435.949 154.776C437.05 153.649 437.929 152.278 438.531 150.752C439.132 149.225 439.443 147.576 439.444 145.908L442.821 155.412L448.501 145.775C448.156 146.352 452.234 155.101 452.804 156.298C457.358 153.195 461.436 148.598 465.514 144.844Z" fill="white"/>
</mask>
<g mask="url(#mask2_30_1215)">
<path opacity="0.1" d="M520.712 256.921C525.032 267.951 527.329 279.837 527.464 291.875C523.837 287.405 518.794 284.686 513.403 284.293C515.526 286.349 517.166 288.955 518.18 291.882C519.193 294.808 519.548 297.968 519.215 301.083C518.633 297.906 514.092 297.669 512.331 300.241C510.57 302.813 511.007 306.508 512.053 309.538C509.991 307.002 508.286 304.131 506.995 301.024C508.823 309.737 509.298 318.736 508.398 327.628C503.473 323.505 499.687 317.917 497.475 311.503C497.694 318 498.582 324.447 500.123 330.717C496.979 328.892 494.206 326.361 491.977 323.284C489.749 320.206 488.114 316.649 487.175 312.833C486.024 319.764 485.889 326.857 486.777 333.836L478.913 311.917L478.158 338.831C475.539 335.354 473.401 331.458 471.816 327.274C471.816 329.091 471.882 330.909 471.922 332.727C468.988 331.149 466.436 328.807 464.481 325.899C464.481 328.175 464.574 330.466 464.614 332.757C460.763 329.085 457.589 324.612 455.266 319.588C450.72 324.367 447.792 330.752 446.978 337.664C445.453 335.274 444.415 332.541 443.937 329.655C443.459 326.77 443.552 323.803 444.211 320.962L430.521 329.032C429.937 323.833 431.159 318.581 433.937 314.356C429.627 317.024 425.625 320.27 422.021 324.022C421.634 322.101 421.673 320.103 422.134 318.202C422.596 316.301 423.466 314.555 424.669 313.114C416.093 322.134 404.768 327.179 392.985 327.229C395.708 323.153 398.998 319.59 402.73 316.676C398.601 317.566 394.661 319.321 391.118 321.849L399.685 309.375C391.596 308.285 383.394 308.958 375.535 311.355C376.131 310.395 376.753 309.449 377.389 308.532C388.468 298.863 401.167 291.763 414.739 287.648L406 297.403L411.045 293.22C411.045 294.846 411.045 296.472 411.045 298.098C412.608 298.059 414.125 297.498 415.401 296.487C416.682 295.481 418.234 295.001 419.796 295.127C421.332 295.452 422.577 297.551 421.69 298.97C422.921 298.415 424.031 297.57 424.945 296.494C425.859 295.418 426.555 294.135 426.986 292.733C427.384 294.522 428.152 296.182 429.228 297.58C430.304 298.979 431.658 300.077 433.182 300.788C433.819 295.379 435.005 290.068 436.717 284.958C441.847 290.185 448.261 293.577 455.134 294.698C455.544 281.396 448.514 268.952 439.974 259.611C445.535 260.394 451.182 259.819 456.524 257.926C457.087 257.804 457.585 257.444 457.914 256.921C458.12 256.367 458.12 255.745 457.914 255.191C456.723 250.994 453.121 248.348 449.758 246.043C452.51 245.954 455.252 245.658 457.967 245.156C457.387 244.465 457.031 243.577 456.956 242.634C456.882 241.69 457.093 240.746 457.557 239.953C458.523 238.392 459.795 237.098 461.277 236.17C457.716 235.638 456.299 229.445 459.199 227.065C455.219 227.645 451.175 226.9 447.574 224.922L466.481 209.536L450.023 211.014C451.038 208.659 452.067 206.309 453.108 203.964L451.202 204.688C451.365 201.09 452.532 197.638 454.538 194.815L447.19 196.426C448.928 193.399 451.076 190.692 453.558 188.401C450.547 191.406 446.903 193.511 442.966 194.52C442.519 192.793 442.399 190.982 442.613 189.2C442.827 187.419 443.372 185.707 444.211 184.174C439.52 184.575 434.982 186.217 430.971 188.962C433.326 184.941 435.112 180.54 436.267 175.912C432.469 177.445 429.021 179.892 426.165 183.08C426.223 182.079 426.378 181.088 426.628 180.124C426.424 180.334 426.191 180.509 425.94 180.641C426.048 176.908 425.261 173.21 423.659 169.931C422.058 166.652 419.7 163.91 416.831 161.989C416.157 159.726 415.343 157.518 414.394 155.382C420.618 157.232 426.385 160.633 431.262 165.329C430.23 157.457 427.991 149.842 424.642 142.819C427.258 143.606 429.666 145.082 431.663 147.124C433.661 149.167 435.19 151.715 436.121 154.554C437.222 153.427 438.101 152.057 438.703 150.53C439.304 149.004 439.616 147.354 439.617 145.686L442.993 155.19L448.673 145.553C448.329 146.13 452.406 154.88 452.976 156.077C457.504 153.121 461.582 148.509 465.66 144.711C465.077 148.495 464.481 152.264 463.886 156.047L489.042 149.721C487.956 152.583 486.277 155.116 484.143 157.111L497.131 157.643C497.072 159.488 496.408 161.244 495.266 162.579C494.124 163.914 492.583 164.735 490.935 164.886L493.186 170.029C497.19 169.127 501.319 169.168 505.308 170.147C509.298 171.127 513.06 173.025 516.356 175.719C512.096 178.904 507.047 180.512 501.924 180.316C509.07 181.984 515.913 184.982 522.168 189.184C524.3 190.662 526.617 193.47 525.2 195.746L516.091 194.993C518.473 198.929 521.647 202.189 525.359 204.511L516.091 204.866C516.535 207.683 517.817 210.251 519.732 212.152L512.41 213.468C518.028 220.256 521.958 228.566 523.81 237.574L513.814 234.278C518.052 237.137 521.562 241.164 524.006 245.973C526.449 250.782 527.745 256.211 527.769 261.739C525.016 261.016 522.543 259.327 520.712 256.921Z" fill="black"/>
</g>
<path d="M465.514 144.844C464.931 148.628 464.336 152.397 463.74 156.18L488.896 149.854C487.805 152.713 486.127 155.244 483.997 157.244L496.986 157.776C496.926 159.621 496.263 161.377 495.12 162.712C493.978 164.047 492.437 164.868 490.789 165.019L493.04 170.162C497.044 169.26 501.173 169.301 505.162 170.28C509.152 171.26 512.914 173.158 516.21 175.852C511.978 178.958 506.985 180.517 501.924 180.316C509.07 181.984 515.913 184.982 522.168 189.184C524.3 190.662 526.617 193.47 525.2 195.746L516.091 194.993C518.473 198.929 521.647 202.189 525.359 204.511L516.091 204.866C516.534 207.683 517.817 210.251 519.732 212.152L512.41 213.468C518.028 220.256 521.958 228.566 523.81 237.574L513.814 234.278C518.052 237.137 521.562 241.164 524.005 245.973C526.449 250.782 527.745 256.211 527.769 261.739C524.999 261.047 522.504 259.372 520.659 256.965C524.987 267.98 527.3 279.849 527.464 291.875C523.837 287.405 518.794 284.686 513.403 284.293C515.526 286.349 517.166 288.955 518.18 291.882C519.193 294.808 519.548 297.968 519.215 301.083C518.633 297.906 514.092 297.669 512.331 300.241C510.57 302.813 511.007 306.508 512.053 309.538C509.991 307.002 508.285 304.131 506.995 301.024C508.823 309.737 509.298 318.736 508.398 327.628C503.476 323.508 499.691 317.925 497.475 311.518C497.694 318.015 498.582 324.462 500.123 330.732C496.979 328.906 494.206 326.376 491.977 323.298C489.749 320.221 488.114 316.663 487.175 312.848C486.024 319.779 485.889 326.872 486.777 333.851L478.913 311.932L478.158 338.846C475.539 335.369 473.401 331.473 471.816 327.288C471.816 329.106 471.882 330.924 471.922 332.742C468.988 331.164 466.436 328.822 464.481 325.914C464.481 328.205 464.574 330.481 464.614 332.772C460.763 329.099 457.589 324.627 455.266 319.603C450.72 324.381 447.792 330.767 446.978 337.679C445.453 335.289 444.415 332.556 443.937 329.67C443.459 326.785 443.552 323.818 444.211 320.977L430.521 329.047C429.937 323.847 431.159 318.596 433.937 314.371C429.627 317.039 425.625 320.285 422.021 324.037C421.634 322.115 421.673 320.118 422.134 318.217C422.596 316.316 423.466 314.57 424.669 313.129C416.093 322.149 404.768 327.194 392.985 327.244C395.708 323.168 398.997 319.605 402.73 316.691C398.601 317.581 394.661 319.336 391.118 321.864L399.685 309.39C391.596 308.3 383.394 308.973 375.535 311.37C379.476 305.096 384.161 299.448 389.463 294.58C384.106 293.857 378.673 294.36 373.496 296.058C374.225 291.974 375.739 288.115 377.934 284.747C380.128 281.378 382.95 278.582 386.206 276.549L361.858 286.008C370.702 271.523 380.037 256.522 393.753 247.964C385.684 247.806 377.615 248.27 369.603 249.353C372.412 244.318 376.586 240.414 381.519 238.209C374.146 237.199 366.662 238.182 359.7 241.077C361.767 237.102 364.93 233.981 368.717 232.18C372.505 230.379 376.713 229.995 380.712 231.085C375.028 229.572 369.615 226.994 364.705 223.459L383.055 221.981L365.579 206.048C373.498 206.732 381.299 208.596 388.775 211.59C384.366 204.344 380.407 196.769 376.925 188.918L386.273 198.318L386.524 193.204C387.839 192.968 389.186 193.116 390.435 193.634C391.683 194.152 392.79 195.022 393.647 196.16C393.509 186.273 390.224 176.764 384.379 169.334C396.658 170.038 408.567 174.258 418.962 181.587C419.428 172.614 417.794 163.659 414.222 155.604C420.446 157.454 426.213 160.855 431.09 165.551C430.058 157.679 427.819 150.064 424.47 143.041C427.086 143.827 429.494 145.304 431.491 147.346C433.489 149.388 435.018 151.937 435.949 154.776C437.05 153.649 437.929 152.278 438.531 150.752C439.132 149.225 439.443 147.576 439.444 145.908L442.821 155.412L448.501 145.775C448.156 146.352 452.234 155.101 452.804 156.298C457.358 153.195 461.436 148.598 465.514 144.844Z" stroke="#263238" stroke-linecap="round" stroke-linejoin="round"/>
<path d="M74.9473 462.185C74.7089 463.663 74.4706 465.141 74.2455 466.619L84.1755 464.122C83.7561 465.268 83.0926 466.282 82.2425 467.078L87.3796 467.284C87.3618 468.016 87.1014 468.714 86.6489 469.244C86.1965 469.774 85.584 470.097 84.9302 470.152L85.8173 472.191C87.4004 471.832 89.0333 471.846 90.6111 472.233C92.189 472.62 93.6769 473.371 94.9794 474.438C93.314 475.681 91.3417 476.312 89.3391 476.241C92.1432 476.908 94.828 478.091 97.2831 479.744C98.1172 480.306 99.0441 481.429 98.4747 482.331L94.8735 482.035C95.8194 483.59 97.0745 484.88 98.5409 485.804L94.8999 485.937C95.0601 487.079 95.5702 488.124 96.3431 488.893L93.4435 489.425C95.6711 492.106 97.2281 495.393 97.9584 498.958L93.9864 497.643C95.6629 498.774 97.0511 500.367 98.0178 502.269C98.9846 504.171 99.4975 506.319 99.5075 508.506C98.4113 508.226 97.4236 507.563 96.6873 506.614C98.3873 510.982 99.2876 515.686 99.3353 520.448C97.8965 518.693 95.9019 517.633 93.7745 517.492C94.6157 518.303 95.2656 519.333 95.6673 520.49C96.0689 521.647 96.2101 522.896 96.0783 524.128C95.84 522.872 94.0526 522.783 93.3508 523.788C93.0577 524.342 92.8933 524.969 92.8725 525.612C92.8517 526.254 92.9752 526.893 93.2317 527.469C92.4218 526.46 91.7483 525.325 91.2325 524.099C91.9589 527.545 92.1471 531.105 91.7885 534.622C89.8398 532.996 88.3433 530.788 87.4723 528.252C87.565 530.821 87.9204 533.37 88.5315 535.849C87.2874 535.129 86.1901 534.13 85.3084 532.914C84.4266 531.698 83.7795 530.292 83.4076 528.784C82.9579 531.526 82.9043 534.33 83.2487 537.09C82.216 534.134 81.1833 531.311 80.1373 528.415C80.0447 531.962 79.9387 535.509 79.8461 539.056C78.809 537.682 77.9611 536.143 77.3305 534.489V536.647C76.1704 536.022 75.1622 535.094 74.3912 533.942V536.662C72.8724 535.208 71.6182 533.442 70.6972 531.459C68.9005 533.347 67.741 535.868 67.4137 538.598C66.8143 537.651 66.4068 536.569 66.2193 535.428C66.0318 534.287 66.0689 533.115 66.328 531.991L61.0982 535.036C60.858 532.982 61.3318 530.903 62.4222 529.227C60.7162 530.29 59.1294 531.575 57.6955 533.056C57.5428 532.294 57.5595 531.503 57.7441 530.751C57.9288 529.998 58.2758 529.308 58.7547 528.74C55.3657 532.308 50.8884 534.305 46.2297 534.327C47.3 532.71 48.6018 531.302 50.0825 530.159C48.4488 530.506 46.8895 531.198 45.4883 532.198L48.8777 527.262C45.6758 526.833 42.4299 527.099 39.3184 528.045C40.8825 525.565 42.7397 523.333 44.8395 521.409C42.7177 521.114 40.5642 521.305 38.5108 521.971C38.8049 520.357 39.4064 518.833 40.2745 517.502C41.1426 516.171 42.2569 515.064 43.542 514.255L33.9165 517.995C37.4119 512.275 41.1058 506.333 46.5342 502.949C43.34 502.892 40.1461 503.08 36.9749 503.51C38.0856 501.506 39.7421 499.952 41.7016 499.076C38.784 498.682 35.8242 499.072 33.0691 500.214C33.8866 498.642 35.1387 497.407 36.6378 496.695C38.1368 495.984 39.8021 495.834 41.3839 496.268C39.1421 495.681 37.0034 494.682 35.0551 493.312L42.3107 492.706L35.3994 486.395C38.5312 486.676 41.6162 487.416 44.5747 488.597C42.8298 485.73 41.2638 482.733 39.8877 479.626L43.5817 483.336C43.5817 482.67 43.5817 481.991 43.6876 481.326C44.2049 481.227 44.7362 481.282 45.2286 481.484C45.7211 481.687 46.1575 482.029 46.4945 482.478C46.4413 478.567 45.141 474.804 42.827 471.866C47.6841 472.151 52.3939 473.826 56.5039 476.729C56.6989 473.156 56.0507 469.589 54.6239 466.383C57.0675 467.12 59.3304 468.464 61.2439 470.314C60.8292 467.209 59.9331 464.208 58.5959 461.446C59.633 461.751 60.5882 462.333 61.3792 463.142C62.1703 463.95 62.7736 464.961 63.1372 466.087C63.5728 465.639 63.921 465.095 64.1602 464.49C64.3994 463.885 64.5244 463.231 64.5274 462.57C64.9643 463.826 65.4145 465.082 65.8514 466.324L68.0889 462.525C68.5518 463.961 69.1232 465.351 69.7969 466.679C71.6206 465.34 73.3431 463.837 74.9473 462.185Z" fill="#92E3E3"/>
<path d="M74.9473 462.185C74.7089 463.663 74.4706 465.141 74.2455 466.619L84.1755 464.122C83.7561 465.268 83.0926 466.282 82.2425 467.078L87.3796 467.284C87.3618 468.016 87.1014 468.714 86.6489 469.244C86.1965 469.774 85.584 470.097 84.9302 470.152L85.8173 472.191C87.4004 471.832 89.0333 471.846 90.6111 472.233C92.189 472.62 93.6769 473.371 94.9794 474.438C93.314 475.681 91.3417 476.312 89.3391 476.241C92.1432 476.908 94.828 478.091 97.2831 479.744C98.1173 480.306 99.0441 481.429 98.4747 482.331L94.8735 482.035C95.8194 483.59 97.0745 484.88 98.5409 485.804L94.8999 485.937C95.0601 487.079 95.5702 488.124 96.3431 488.893L93.4435 489.425C95.6711 492.106 97.2281 495.393 97.9584 498.958L93.9864 497.643C95.6629 498.774 97.0511 500.367 98.0178 502.269C98.9846 504.171 99.4975 506.319 99.5075 508.506C98.4113 508.226 97.4236 507.563 96.6873 506.614C98.3873 510.982 99.2876 515.686 99.3353 520.448C97.8965 518.693 95.9019 517.633 93.7745 517.492C94.6157 518.303 95.2656 519.333 95.6673 520.49C96.0689 521.647 96.2101 522.896 96.0783 524.128C95.84 522.872 94.0526 522.783 93.3509 523.788C93.0577 524.342 92.8933 524.969 92.8725 525.612C92.8517 526.254 92.9751 526.893 93.2317 527.469C92.4218 526.46 91.7483 525.325 91.2325 524.099C91.9589 527.545 92.1471 531.105 91.7885 534.622C89.8398 532.996 88.3433 530.788 87.4723 528.252C87.565 530.821 87.9204 533.37 88.5315 535.849C87.2874 535.129 86.1901 534.13 85.3084 532.914C84.4266 531.698 83.7795 530.292 83.4076 528.784C82.9579 531.526 82.9043 534.33 83.2487 537.09C82.216 534.134 81.1833 531.311 80.1373 528.415C80.0447 531.962 79.9387 535.509 79.8461 539.056C78.809 537.682 77.9611 536.143 77.3305 534.489V536.647C76.1704 536.022 75.1622 535.094 74.3912 533.942V536.662C72.8724 535.208 71.6182 533.442 70.6972 531.459C68.9005 533.347 67.741 535.868 67.4137 538.598C66.8143 537.651 66.4068 536.569 66.2193 535.428C66.0318 534.287 66.0689 533.115 66.328 531.991L61.0982 535.036C60.858 532.982 61.3318 530.903 62.4222 529.227C60.7162 530.29 59.1294 531.575 57.6955 533.056C57.5428 532.294 57.5595 531.503 57.7441 530.751C57.9288 529.998 58.2758 529.308 58.7547 528.74C55.3657 532.308 50.8884 534.305 46.2297 534.327C47.3 532.71 48.6018 531.302 50.0825 530.159C48.4488 530.506 46.8895 531.198 45.4883 532.198L48.8777 527.262C45.6758 526.833 42.4299 527.099 39.3184 528.045C40.8825 525.565 42.7397 523.333 44.8395 521.409C42.7177 521.114 40.5642 521.305 38.5108 521.971C38.8049 520.357 39.4064 518.833 40.2745 517.502C41.1426 516.171 42.2569 515.064 43.542 514.255L33.9165 517.995C37.4119 512.275 41.1058 506.333 46.5342 502.949C43.34 502.892 40.1461 503.08 36.9749 503.51C38.0856 501.506 39.7421 499.952 41.7016 499.076C38.784 498.682 35.8242 499.072 33.0691 500.214C33.8866 498.642 35.1387 497.407 36.6378 496.695C38.1368 495.984 39.8021 495.834 41.3839 496.268C39.1421 495.681 37.0034 494.682 35.0551 493.312L42.3107 492.706L35.3994 486.395C38.5312 486.676 41.6162 487.416 44.5747 488.597C42.8298 485.73 41.2638 482.733 39.8877 479.626L43.5817 483.336C43.5817 482.67 43.5817 481.991 43.6876 481.326C44.2049 481.227 44.7362 481.282 45.2286 481.484C45.7211 481.687 46.1575 482.029 46.4945 482.478C46.4413 478.567 45.141 474.804 42.827 471.866C47.6841 472.151 52.3939 473.826 56.5039 476.729C56.6989 473.156 56.0507 469.589 54.6239 466.383C57.0675 467.12 59.3304 468.464 61.2439 470.314C60.8292 467.209 59.9331 464.208 58.5959 461.446C59.633 461.751 60.5882 462.333 61.3792 463.142C62.1703 463.95 62.7736 464.961 63.1372 466.087C63.5728 465.639 63.921 465.095 64.1602 464.49C64.3994 463.885 64.5244 463.231 64.5274 462.57C64.9643 463.826 65.4145 465.082 65.8514 466.324L68.0889 462.525C68.5518 463.961 69.1232 465.351 69.7969 466.679C71.6206 465.34 73.3431 463.837 74.9473 462.185Z" stroke="#263238" stroke-linecap="round" stroke-linejoin="round"/>
<path d="M125.762 579.066H120.493L121.671 460.766H124.597L125.762 579.066Z" fill="#92E3E3" stroke="#263238" stroke-linecap="round" stroke-linejoin="round"/>
<path d="M125.603 461.55H120.665L118.97 446.681H127.298L125.603 461.55Z" fill="#92E3E3"/>
<mask id="mask3_30_1215" style="mask-type:luminance" maskUnits="userSpaceOnUse" x="118" y="446" width="10" height="16">
<path d="M125.603 461.55H120.665L118.97 446.681H127.298L125.603 461.55Z" fill="white"/>
</mask>
<g mask="url(#mask3_30_1215)">
<path opacity="0.6" d="M125.603 461.55H120.665L118.97 446.681H127.298L125.603 461.55Z" fill="white"/>
</g>
<path d="M125.603 461.55H120.665L118.97 446.681H127.298L125.603 461.55Z" stroke="#263238" stroke-linecap="round" stroke-linejoin="round"/>
<path d="M123.591 442.558H122.664L117.408 446.681H128.861L123.591 442.558Z" fill="#92E3E3"/>
<mask id="mask4_30_1215" style="mask-type:luminance" maskUnits="userSpaceOnUse" x="117" y="442" width="12" height="5">
<path d="M123.591 442.558H122.664L117.408 446.681H128.861L123.591 442.558Z" fill="white"/>
</mask>
<g mask="url(#mask4_30_1215)">
<path opacity="0.2" d="M123.591 442.558H122.664L117.408 446.681H128.861L123.591 442.558Z" fill="white"/>
</g>
<path d="M123.591 442.558H122.664L117.408 446.681H128.861L123.591 442.558Z" stroke="#263238" stroke-linecap="round" stroke-linejoin="round"/>
<path d="M361.858 557.206L360.19 387.975H361.699L364.241 365.554H366.598L358.654 359.331H357.251L349.307 365.554H351.663L354.219 387.975H355.728L354.02 557.206C353.055 557.221 352.135 557.659 351.456 558.425C350.778 559.191 350.396 560.223 350.392 561.3V609.069H365.433V561.344C365.444 560.269 365.075 559.231 364.406 558.457C363.737 557.682 362.822 557.233 361.858 557.206Z" fill="#92E3E3"/>
<mask id="mask5_30_1215" style="mask-type:luminance" maskUnits="userSpaceOnUse" x="349" y="359" width="18" height="251">
<path d="M361.858 557.206L360.19 387.975H361.699L364.241 365.554H366.598L358.654 359.331H357.251L349.307 365.554H351.663L354.219 387.975H355.728L354.02 557.206C353.055 557.221 352.135 557.659 351.456 558.425C350.778 559.191 350.396 560.223 350.392 561.3V609.069H365.433V561.344C365.444 560.269 365.075 559.231 364.406 558.457C363.737 557.682 362.822 557.233 361.858 557.206Z" fill="white"/>
</mask>
<g mask="url(#mask5_30_1215)">
<path opacity="0.4" d="M361.858 557.206L360.19 387.975H361.699L364.241 365.554H366.598L358.654 359.331H357.251L349.307 365.554H351.663L354.219 387.975H355.728L354.02 557.206C353.055 557.221 352.135 557.659 351.456 558.425C350.778 559.191 350.396 560.223 350.392 561.3V609.069H365.433V561.344C365.444 560.269 365.075 559.231 364.406 558.457C363.737 557.682 362.822 557.233 361.858 557.206Z" fill="white"/>
</g>
<path d="M361.858 557.206L360.19 387.975H361.699L364.241 365.554H366.598L358.654 359.331H357.251L349.307 365.554H351.663L354.219 387.975H355.728L354.02 557.206C353.055 557.221 352.135 557.659 351.456 558.425C350.778 559.191 350.396 560.223 350.392 561.3V609.069H365.433V561.344C365.444 560.269 365.075 559.231 364.406 558.457C363.737 557.682 362.822 557.233 361.858 557.206Z" stroke="#263238" stroke-linecap="round" stroke-linejoin="round"/>
<path d="M358.23 570.878H347.784L350.101 336.57H355.9L358.23 570.878Z" fill="#92E3E3" stroke="#263238" stroke-linecap="round" stroke-linejoin="round"/>
<path d="M357.899 338.122H348.102L344.752 308.666H361.249L357.899 338.122Z" fill="#92E3E3"/>
<mask id="mask6_30_1215" style="mask-type:luminance" maskUnits="userSpaceOnUse" x="344" y="308" width="18" height="31">
<path d="M357.899 338.122H348.102L344.752 308.666H361.249L357.899 338.122Z" fill="white"/>
</mask>
<g mask="url(#mask6_30_1215)">
<path opacity="0.6" d="M357.899 338.122H348.102L344.752 308.666H361.249L357.899 338.122Z" fill="white"/>
</g>
<path d="M357.899 338.122H348.102L344.752 308.666H361.249L357.899 338.122Z" stroke="#263238" stroke-linecap="round" stroke-linejoin="round"/>
<path d="M353.927 300.492H352.087L341.654 308.665H364.347L353.927 300.492Z" fill="#92E3E3"/>
<mask id="mask7_30_1215" style="mask-type:luminance" maskUnits="userSpaceOnUse" x="341" y="300" width="24" height="9">
<path d="M353.927 300.492H352.087L341.654 308.665H364.347L353.927 300.492Z" fill="white"/>
</mask>
<g mask="url(#mask7_30_1215)">
<path opacity="0.2" d="M353.927 300.492H352.087L341.654 308.665H364.347L353.927 300.492Z" fill="white"/>
</g>
<path d="M353.927 300.492H352.087L341.654 308.665H364.347L353.927 300.492Z" stroke="#263238" stroke-linecap="round" stroke-linejoin="round"/>
<path d="M353.04 582.258H338.9L342.038 265.05H349.902L353.04 582.258Z" fill="#92E3E3"/>
<mask id="mask8_30_1215" style="mask-type:luminance" maskUnits="userSpaceOnUse" x="338" y="265" width="16" height="318">
<path d="M353.04 582.258H338.9L342.038 265.05H349.902L353.04 582.258Z" fill="white"/>
</mask>
<g mask="url(#mask8_30_1215)">
<path opacity="0.2" d="M353.04 582.258H338.9L342.038 265.05H349.902L353.04 582.258Z" fill="black"/>
</g>
<path d="M353.04 582.258H338.9L342.038 265.05H349.902L353.04 582.258Z" stroke="#263238" stroke-linecap="round" stroke-linejoin="round"/>
<path d="M352.603 267.163H339.337L334.796 227.272H357.145L352.603 267.163Z" fill="#92E3E3"/>
<mask id="mask9_30_1215" style="mask-type:luminance" maskUnits="userSpaceOnUse" x="334" y="227" width="24" height="41">
<path d="M352.603 267.163H339.337L334.796 227.272H357.145L352.603 267.163Z" fill="white"/>
</mask>
<g mask="url(#mask9_30_1215)">
<path opacity="0.5" d="M352.603 267.163H339.337L334.796 227.272H357.145L352.603 267.163Z" fill="white"/>
</g>
<path d="M352.603 267.163H339.337L334.796 227.272H357.145L352.603 267.163Z" stroke="#263238" stroke-linecap="round" stroke-linejoin="round"/>
<path d="M347.215 216.202H344.726L330.598 227.272H361.328L347.215 216.202Z" fill="#92E3E3" stroke="#263238" stroke-linecap="round" stroke-linejoin="round"/>
<path d="M328.295 191.15C328.295 191.15 327.977 192.436 327.341 194.682" stroke="#92E3E3" stroke-linecap="round" stroke-linejoin="round"/>
<path d="M325.183 201.806C317.345 226.031 294.506 282.195 254.27 269.883C203.283 254.29 252.866 221.552 267.51 251.955C281.399 280.761 211.902 305.355 173.135 290.649" stroke="#92E3E3" stroke-linecap="round" stroke-linejoin="round" stroke-dasharray="5.1 5.1"/>
<path d="M169.984 289.333C168.951 288.86 167.932 288.358 166.965 287.855" stroke="#92E3E3" stroke-linecap="round" stroke-linejoin="round"/>
<path d="M149.859 272.233C151.214 271.947 152.609 272.009 153.94 272.413C155.27 272.818 156.501 273.555 157.538 274.568C161.391 278.071 158.598 286.658 158.598 286.658C158.598 286.658 150.217 288.993 149.859 272.233Z" fill="#92E3E3"/>
<path d="M240.156 306.064C240.789 307.429 241.136 308.936 241.17 310.473C241.205 312.009 240.926 313.534 240.355 314.932C238.448 320.046 230.279 319.529 230.279 319.529C230.279 319.529 225.857 311.252 240.156 306.064Z" fill="#92E3E3"/>
<path d="M299.034 225.602C298.806 224.084 298.892 222.528 299.284 221.053C299.676 219.578 300.365 218.222 301.298 217.089C304.529 212.876 312.142 216.187 312.142 216.187C312.142 216.187 314.048 225.587 299.034 225.602Z" fill="#92E3E3"/>
</svg>
