<svg width="331" height="345" viewBox="0 0 331 345" fill="none" xmlns="http://www.w3.org/2000/svg">
<path d="M190.5 295.016C264.387 295.016 324.284 291.519 324.284 287.206C324.284 282.892 264.387 279.395 190.5 279.395C116.613 279.395 56.7159 282.892 56.7159 287.206C56.7159 291.519 116.613 295.016 190.5 295.016Z" fill="#F5F5F5"/>
<path d="M226.943 109.455C226.819 111.525 226.577 113.422 226.308 115.389C226.039 117.355 225.673 119.28 225.259 121.212C224.452 125.122 223.286 128.95 221.775 132.646L221.147 134.026L220.995 134.371L220.94 134.55L220.83 134.771C220.619 135.204 220.352 135.607 220.036 135.971C219.66 136.395 219.211 136.747 218.711 137.013C218.22 137.271 217.688 137.439 217.138 137.51C216.294 137.6 215.44 137.511 214.633 137.248C213.49 136.858 212.411 136.299 211.432 135.592C210.575 134.988 209.757 134.331 208.982 133.625C206.078 130.933 203.465 127.942 201.185 124.704L203.469 122.765C204.849 124.041 206.229 125.332 207.609 126.553C208.981 127.774 210.414 128.925 211.901 130.003C212.601 130.504 213.329 130.964 214.081 131.383C214.688 131.751 215.343 132.032 216.027 132.218C216.262 132.266 216.427 132.218 216.351 132.218C216.189 132.236 216.036 132.306 215.917 132.418C215.875 132.418 215.875 132.418 215.917 132.418L216.138 131.845L216.621 130.589C217.818 127.132 218.752 123.589 219.415 119.991C219.781 118.183 220.036 116.341 220.312 114.512C220.588 112.684 220.781 110.8 220.94 109.054L226.943 109.455Z" fill="#FFC3BD"/>
<path d="M222.762 101.858C220.188 102.513 218.387 113.098 218.387 113.098L225.473 117.928C225.473 117.928 232.27 107.254 230.303 104.425C228.233 101.464 226.515 100.906 222.762 101.858Z" fill="#92E3E3"/>
<path d="M222.762 101.858C220.188 102.513 218.387 113.098 218.387 113.098L225.473 117.928C225.473 117.928 232.27 107.254 230.303 104.425C228.233 101.464 226.515 100.906 222.762 101.858Z" fill="#92E3E3"/>
<path opacity="0.4" d="M222.762 101.858C220.188 102.513 218.387 113.098 218.387 113.098L225.473 117.928C225.473 117.928 232.27 107.254 230.303 104.425C228.233 101.464 226.515 100.906 222.762 101.858Z" fill="black"/>
<path opacity="0.3" d="M222.989 104.224L221.016 114.885L224.997 117.59L222.989 104.224Z" fill="black"/>
<path d="M203.586 122.33L200.24 117.003L198.329 123.055C198.329 123.055 201.089 125.953 203.593 125.263L203.586 122.33Z" fill="#FFC3BD"/>
<path d="M195.272 115.244L193.947 120.391L198.301 123.055L200.212 117.003L195.272 115.244Z" fill="#FFC3BD"/>
<path d="M236.672 279.967H230.434L230.013 265.519H236.258L236.672 279.967Z" fill="#FFC3BD"/>
<path d="M291.727 250.987L286.973 255.031L276.092 245.316L280.846 241.279L291.727 250.987Z" fill="#FFC3BD"/>
<path d="M285.669 254.548L290.285 249.262C290.364 249.171 290.473 249.112 290.592 249.096C290.712 249.079 290.833 249.107 290.934 249.173L295.632 252.216C295.748 252.296 295.846 252.4 295.919 252.521C295.992 252.642 296.038 252.777 296.055 252.917C296.072 253.057 296.059 253.199 296.017 253.334C295.975 253.469 295.905 253.593 295.812 253.699C294.17 255.514 293.286 256.307 291.258 258.626C290.016 260.054 288.339 262.276 286.614 264.242C284.889 266.209 282.847 264.622 283.392 263.642C285.814 259.267 285.234 257.736 285.276 255.583C285.282 255.202 285.421 254.836 285.669 254.548Z" fill="#263238"/>
<path d="M230.22 279.25H237.231C237.352 279.249 237.468 279.292 237.56 279.37C237.651 279.449 237.711 279.558 237.728 279.678L238.528 285.198C238.551 285.344 238.541 285.493 238.499 285.634C238.457 285.776 238.384 285.906 238.286 286.016C238.188 286.126 238.066 286.214 237.93 286.271C237.794 286.329 237.647 286.356 237.5 286.35C235.057 286.309 233.877 286.164 230.793 286.164C228.896 286.164 224.976 286.364 222.354 286.364C219.732 286.364 219.594 283.769 220.692 283.542C225.577 282.486 227.502 281.037 229.151 279.65C229.447 279.392 229.827 279.25 230.22 279.25Z" fill="#263238"/>
<path opacity="0.2" d="M230.02 265.526L230.234 272.971H236.472L236.258 265.526H230.02Z" fill="black"/>
<path opacity="0.2" d="M280.853 241.279L276.092 245.316L281.708 250.325L286.462 246.282L280.853 241.279Z" fill="black"/>
<path d="M222.762 101.858C222.762 101.858 219.788 102.907 225.742 139.518H251.079C250.658 129.202 250.644 122.841 255.571 101.678C252.024 100.947 248.429 100.472 244.814 100.257C240.982 99.984 237.136 99.984 233.305 100.257C228.364 100.74 222.762 101.858 222.762 101.858Z" fill="#92E3E3"/>
<path opacity="0.4" d="M222.762 101.858C222.762 101.858 219.788 102.907 225.742 139.518H251.079C250.658 129.202 250.644 122.841 255.571 101.678C252.024 100.947 248.429 100.472 244.814 100.257C240.982 99.984 237.136 99.984 233.305 100.257C228.364 100.74 222.762 101.858 222.762 101.858Z" fill="black"/>
<path d="M244.814 100.257C240.982 99.984 237.136 99.984 233.305 100.257C232.684 100.312 232.049 100.381 231.421 100.457C231.161 100.849 230.995 101.296 230.935 101.762C230.875 102.229 230.924 102.703 231.076 103.148C231.883 105.156 234.795 105.391 236.92 105.391C244.766 105.391 246.09 100.809 246.146 100.616L246.222 100.34C245.78 100.312 245.283 100.278 244.814 100.257Z" fill="white"/>
<path d="M243.71 87.3057C242.979 91.0041 242.261 97.7868 244.848 100.257C244.848 100.257 243.834 104.017 236.955 104.017C229.365 104.017 233.339 100.264 233.339 100.264C237.479 99.2772 237.362 96.2136 236.644 93.3639L243.71 87.3057Z" fill="#FFC3BD"/>
<path opacity="0.2" d="M240.791 89.7621L236.61 93.3294C236.79 94.0075 236.91 94.7002 236.969 95.3994C238.542 95.1717 240.708 93.4398 240.881 91.7907C240.978 91.1148 240.947 90.4268 240.791 89.7621Z" fill="black"/>
<path d="M239.37 67.1715C238.728 64.998 238.19 61.5756 242.054 60.03C240.543 58.1808 240.177 54.7032 242.054 52.6401C243.931 50.577 246.746 51.336 246.746 51.336C246.746 51.336 247.574 46.2921 253.708 47.196C259.842 48.0999 257.11 52.1364 257.11 52.1364C257.11 52.1364 265.479 50.4804 266.038 58.3464C266.597 66.2124 261.795 65.2464 261.795 65.2464C261.795 65.2464 265.528 68.379 263.458 71.8221C261.388 75.2652 256.606 74.0784 256.606 74.0784C256.606 74.0784 254.357 80.1642 249.057 76.7004C243.758 73.2366 239.37 67.1715 239.37 67.1715Z" fill="#263238"/>
<path d="M226.943 71.76C224.873 74.4372 225.784 77.4663 227.633 78.66C232.083 81.5028 238.521 69.5796 236.844 68.1513C235.168 66.723 229.013 69.0759 226.943 71.76Z" fill="#263238"/>
<path d="M245.635 65.3843C242.71 64.2044 239.743 65.4395 238.818 67.2197C236.562 71.5598 246.808 79.3775 249.775 73.9541C251.535 70.7318 248.65 66.5987 245.635 65.3843Z" fill="#92E3E3"/>
<path d="M244.4 78.66C244.614 84.87 244.835 87.4644 242.026 90.9213C237.81 96.117 230.158 95.0268 228.102 89.0238C226.253 83.6211 226.218 74.4096 232.008 71.3874C233.28 70.7142 234.704 70.3776 236.143 70.4093C237.582 70.4411 238.99 70.8403 240.231 71.569C241.473 72.2976 242.508 73.3316 243.237 74.5727C243.967 75.8137 244.367 77.2207 244.4 78.66Z" fill="#FFC3BD"/>
<path d="M243.468 81.9099C240.708 80.8818 240.018 77.6595 240.46 76.3899C239.08 76.3347 236.065 75.8379 234.94 74.1267C232.787 75.5067 228.24 76.8867 227.75 74.589C227.26 72.2913 234.119 66.3849 239.308 65.9295C245.476 65.3913 251.562 71.4495 249.996 77.2524C248.43 83.0553 243.468 81.9099 243.468 81.9099Z" fill="#263238"/>
<path d="M225.77 139.518C225.77 139.518 220.85 187.576 221.257 206.607C221.685 226.396 228.937 271.529 228.937 271.529H237.369C237.369 271.529 236.037 227.548 236.782 208.118C237.597 186.928 244.324 139.518 244.324 139.518H225.77Z" fill="#263238"/>
<path d="M238.073 271.832H228.178L227.447 268.679L238.535 268.293L238.073 271.832Z" fill="#92E3E3"/>
<path opacity="0.2" d="M236.672 151.476C230.462 163.992 235.423 186.831 237.624 195.332C238.749 182.567 240.653 166.966 242.137 155.512C241.198 149.04 239.57 145.7 236.672 151.476Z" fill="black"/>
<path d="M232.435 139.518C232.435 139.518 238.176 189.481 242.509 205.523C247.657 224.567 279.624 250.201 279.624 250.201L286.11 244.681C286.11 244.681 262.94 216.832 259 206.8C250.603 185.41 257.793 153.477 251.079 139.504L232.435 139.518Z" fill="#263238"/>
<path d="M287.146 244.398L279.1 251.229L276.092 249.428L285.193 240.962L287.146 244.398Z" fill="#92E3E3"/>
<path d="M235.216 81.2544C235.264 81.7581 235.037 82.1859 234.712 82.2204C234.388 82.2549 234.078 81.8685 234.022 81.3717C233.967 80.8749 234.202 80.4333 234.533 80.4057C234.864 80.3781 235.168 80.73 235.216 81.2544Z" fill="#263238"/>
<path d="M229.558 81.7995C229.606 82.2963 229.379 82.731 229.047 82.7655C228.716 82.8 228.42 82.4136 228.357 81.9099C228.295 81.4062 228.537 80.9784 228.861 80.9508C229.185 80.9232 229.51 81.2958 229.558 81.7995Z" fill="#263238"/>
<path d="M229.02 80.9646L227.785 80.73C227.785 80.73 228.53 81.6132 229.02 80.9646Z" fill="#263238"/>
<path d="M231.131 82.5171C230.795 83.7017 230.299 84.8347 229.655 85.8843C229.928 86.0417 230.233 86.1381 230.547 86.1666C230.862 86.1952 231.179 86.1554 231.476 86.0499L231.131 82.5171Z" fill="#ED847E"/>
<path d="M234.257 87.6989C233.984 87.7738 233.704 87.8246 233.422 87.8507C233.403 87.8526 233.384 87.8507 233.366 87.8452C233.347 87.8396 233.33 87.8305 233.315 87.8183C233.301 87.8061 233.288 87.7911 233.28 87.7742C233.271 87.7572 233.265 87.7387 233.263 87.7196C233.259 87.6804 233.271 87.6412 233.295 87.6103C233.32 87.5794 233.355 87.5592 233.394 87.554C234.019 87.5081 234.624 87.3162 235.161 86.9938C235.698 86.6715 236.152 86.2276 236.486 85.6979C236.494 85.6797 236.505 85.6633 236.52 85.65C236.535 85.6367 236.552 85.6268 236.571 85.6209C236.59 85.615 236.611 85.6133 236.63 85.6159C236.65 85.6184 236.669 85.6253 236.686 85.6358C236.72 85.6548 236.745 85.6862 236.757 85.7235C236.768 85.7607 236.765 85.801 236.748 85.8359C236.191 86.7571 235.298 87.4253 234.257 87.6989Z" fill="#263238"/>
<path d="M245.849 82.9449C245.698 84.1323 245.083 85.2115 244.138 85.9464C242.875 86.9124 241.661 85.9464 241.516 84.4353C241.392 83.0553 241.888 80.9853 243.393 80.5851C243.721 80.5182 244.06 80.5321 244.382 80.6253C244.704 80.7186 244.998 80.8886 245.24 81.1207C245.481 81.3528 245.663 81.64 245.769 81.9577C245.875 82.2755 245.903 82.6142 245.849 82.9449Z" fill="#FFC3BD"/>
<path d="M235.823 77.7078C235.785 77.7175 235.745 77.7194 235.706 77.7135C235.667 77.7076 235.629 77.6939 235.596 77.6733C235.283 77.4736 234.927 77.3508 234.558 77.3148C234.188 77.2788 233.816 77.3307 233.47 77.4663C233.399 77.4981 233.317 77.5016 233.243 77.476C233.169 77.4504 233.107 77.3976 233.07 77.3283C233.037 77.2577 233.033 77.1769 233.058 77.1033C233.084 77.0297 233.138 76.9692 233.208 76.935C233.643 76.7555 234.114 76.6831 234.582 76.724C235.051 76.7648 235.502 76.9176 235.899 77.1696C235.932 77.1894 235.96 77.2155 235.983 77.2464C236.006 77.2773 236.022 77.3123 236.031 77.3495C236.04 77.3867 236.041 77.4254 236.035 77.4632C236.029 77.501 236.016 77.5372 235.996 77.5698C235.958 77.6358 235.896 77.6851 235.823 77.7078Z" fill="#263238"/>
<path d="M226.784 79.4259C226.713 79.4529 226.635 79.4529 226.563 79.4259C226.497 79.3868 226.447 79.3235 226.425 79.2491C226.403 79.1747 226.411 79.0948 226.446 79.0257C226.657 78.6057 226.965 78.2428 227.346 77.9677C227.727 77.6926 228.169 77.5135 228.633 77.4456C228.672 77.4418 228.711 77.4458 228.748 77.4574C228.785 77.469 228.82 77.4879 228.849 77.513C228.879 77.5381 228.903 77.5689 228.92 77.6035C228.938 77.6382 228.948 77.676 228.951 77.7147C228.957 77.7923 228.932 77.8691 228.881 77.9285C228.831 77.9879 228.759 78.0251 228.682 78.0321C228.316 78.0937 227.969 78.2407 227.671 78.4613C227.372 78.6819 227.13 78.9699 226.964 79.3017C226.944 79.3338 226.918 79.3614 226.887 79.3828C226.856 79.4042 226.821 79.4189 226.784 79.4259Z" fill="#263238"/>
<path d="M258.159 108.406C259.566 111.848 260.78 115.365 261.795 118.942C262.871 122.55 263.638 126.244 264.086 129.982C264.203 130.934 264.237 131.935 264.279 132.922V133.48C264.279 133.681 264.244 133.888 264.217 134.067C264.159 134.412 264.081 134.753 263.982 135.088C263.802 135.662 263.571 136.219 263.292 136.751C262.335 138.52 261.163 140.163 259.801 141.643C257.282 144.41 254.51 146.935 251.521 149.185L249.527 146.97C251.824 144.286 254.143 141.533 256.109 138.69C257.059 137.4 257.869 136.012 258.524 134.55C258.637 134.267 258.729 133.977 258.8 133.681C258.819 133.58 258.831 133.479 258.835 133.377C258.838 133.347 258.838 133.317 258.835 133.287V133.191C258.745 132.376 258.683 131.562 258.531 130.727C257.938 127.319 257.11 123.955 256.054 120.66C254.998 117.321 253.819 113.933 252.604 110.704L258.159 108.406Z" fill="#FFC3BD"/>
<path d="M255.571 101.678C258.11 102.451 261.16 111.193 261.16 111.193L251.3 118.231C251.3 118.231 247.705 110.938 248.775 107.654C249.92 104.238 252.68 100.795 255.571 101.678Z" fill="#92E3E3"/>
<path opacity="0.4" d="M255.571 101.678C258.11 102.451 261.16 111.193 261.16 111.193L251.3 118.231C251.3 118.231 247.705 110.938 248.775 107.654C249.92 104.238 252.68 100.795 255.571 101.678Z" fill="black"/>
<path d="M283.965 257.556C283.837 257.553 283.712 257.521 283.598 257.462C283.485 257.404 283.386 257.32 283.309 257.218C283.246 257.154 283.202 257.074 283.18 256.986C283.158 256.899 283.16 256.808 283.185 256.721C283.419 255.962 285.586 255.341 285.834 255.272C285.862 255.263 285.891 255.262 285.919 255.271C285.946 255.28 285.97 255.297 285.986 255.321C286.002 255.344 286.01 255.372 286.01 255.4C286.01 255.428 286.002 255.456 285.986 255.479C285.6 256.218 284.834 257.46 284.047 257.549L283.965 257.556ZM285.565 255.659C284.71 255.935 283.592 256.411 283.495 256.811C283.485 256.849 283.485 256.889 283.496 256.927C283.507 256.964 283.528 256.998 283.557 257.025C283.613 257.104 283.687 257.167 283.775 257.208C283.862 257.25 283.958 257.267 284.054 257.26C284.454 257.211 285.013 256.618 285.565 255.659Z" fill="#92E3E3"/>
<path d="M284.882 255.686C284.237 255.752 283.59 255.57 283.074 255.176C283.002 255.084 282.963 254.971 282.963 254.855C282.963 254.738 283.002 254.625 283.074 254.534C283.136 254.438 283.218 254.358 283.315 254.298C283.411 254.238 283.52 254.201 283.633 254.189C284.53 254.079 285.89 255.252 285.945 255.3C285.965 255.316 285.98 255.338 285.989 255.362C285.997 255.386 285.999 255.413 285.993 255.438C285.99 255.465 285.98 255.49 285.962 255.511C285.945 255.532 285.922 255.547 285.897 255.555C285.567 255.649 285.225 255.693 284.882 255.686ZM283.785 254.479H283.689C283.618 254.487 283.55 254.51 283.489 254.547C283.428 254.584 283.376 254.634 283.337 254.693C283.233 254.851 283.268 254.934 283.337 254.989C283.606 255.341 284.834 255.472 285.579 255.334C285.069 254.893 284.449 254.597 283.785 254.479Z" fill="#92E3E3"/>
<path d="M227.874 280.34C227.341 280.389 226.808 280.252 226.363 279.954C226.268 279.867 226.195 279.76 226.148 279.64C226.101 279.52 226.083 279.392 226.094 279.264C226.1 279.182 226.126 279.103 226.171 279.034C226.216 278.965 226.277 278.909 226.35 278.87C227.115 278.449 229.599 279.719 229.882 279.871C229.909 279.886 229.93 279.908 229.944 279.935C229.957 279.962 229.962 279.993 229.958 280.023C229.954 280.053 229.941 280.082 229.92 280.104C229.899 280.126 229.871 280.141 229.841 280.147C229.193 280.271 228.534 280.336 227.874 280.34ZM226.764 279.05C226.668 279.044 226.573 279.063 226.488 279.105C226.458 279.119 226.433 279.142 226.416 279.17C226.399 279.198 226.39 279.231 226.391 279.264C226.38 279.35 226.389 279.438 226.419 279.52C226.449 279.601 226.499 279.674 226.563 279.733C226.943 280.078 227.943 280.133 229.323 279.905C228.525 279.476 227.659 279.187 226.764 279.05Z" fill="#92E3E3"/>
<path d="M229.813 280.14H229.751C229.006 279.802 227.536 278.456 227.681 277.753C227.681 277.587 227.826 277.373 228.233 277.332C228.38 277.316 228.529 277.331 228.67 277.375C228.811 277.419 228.942 277.491 229.054 277.587C229.834 278.242 229.979 279.919 229.986 279.995C229.988 280.02 229.983 280.046 229.972 280.069C229.962 280.092 229.945 280.112 229.924 280.126C229.908 280.136 229.889 280.143 229.87 280.145C229.851 280.148 229.832 280.146 229.813 280.14ZM228.323 277.608H228.24C227.964 277.608 227.95 277.746 227.943 277.78C227.874 278.201 228.875 279.264 229.634 279.719C229.572 279.01 229.293 278.338 228.834 277.794C228.694 277.666 228.513 277.592 228.323 277.587V277.608Z" fill="#92E3E3"/>
<path d="M251.459 138L252.107 140.27C252.197 140.443 251.99 140.622 251.693 140.622H225.618C225.39 140.622 225.197 140.512 225.183 140.367L224.956 138.103C224.956 137.945 225.135 137.814 225.39 137.814H251.052C251.13 137.807 251.208 137.821 251.28 137.853C251.351 137.886 251.413 137.936 251.459 138Z" fill="#92E3E3"/>
<path opacity="0.3" d="M251.459 138L252.107 140.27C252.197 140.443 251.99 140.622 251.693 140.622H225.618C225.39 140.622 225.197 140.512 225.183 140.367L224.956 138.103C224.956 137.945 225.135 137.814 225.39 137.814H251.052C251.13 137.807 251.208 137.821 251.28 137.853C251.351 137.886 251.413 137.936 251.459 138Z" fill="white"/>
<path d="M248.016 140.898H248.706C248.837 140.898 248.94 140.829 248.933 140.739L248.609 137.793C248.609 137.71 248.485 137.634 248.347 137.634H247.657C247.519 137.634 247.415 137.71 247.429 137.793L247.746 140.739C247.76 140.829 247.85 140.898 248.016 140.898Z" fill="#263238"/>
<path d="M227.55 140.898H228.24C228.378 140.898 228.482 140.829 228.475 140.739L228.151 137.793C228.151 137.71 228.019 137.634 227.888 137.634H227.198C227.06 137.634 226.957 137.71 226.964 137.793L227.288 140.739C227.295 140.829 227.412 140.898 227.55 140.898Z" fill="#263238"/>
<path d="M237.783 140.898H238.473C238.611 140.898 238.714 140.829 238.707 140.739L238.383 137.793C238.383 137.71 238.259 137.634 238.121 137.634H237.431C237.293 137.634 237.189 137.71 237.203 137.793L237.5 140.76C237.5 140.829 237.645 140.898 237.783 140.898Z" fill="#263238"/>
<path d="M234.685 80.4195L233.45 80.1849C233.45 80.1849 234.153 81.0681 234.685 80.4195Z" fill="#263238"/>
<path opacity="0.2" d="M211.846 168.284C200.156 172.826 187.381 173.799 175.138 171.08C162.895 168.362 151.733 162.074 143.063 153.012C134.394 143.95 128.606 132.521 126.432 120.169C124.258 107.818 125.795 95.0994 130.849 83.6217C135.904 72.1439 144.248 62.4227 154.827 55.6872C165.406 48.9517 177.745 45.5044 190.283 45.7813C202.821 46.0582 214.996 50.0468 225.267 57.2428C235.538 64.4388 243.445 74.5189 247.988 86.2086C251.005 93.9707 252.464 102.251 252.281 110.577C252.097 118.903 250.275 127.112 246.919 134.733C243.563 142.355 238.738 149.241 232.72 154.998C226.702 160.754 219.609 165.269 211.846 168.284Z" fill="#92E3E3"/>
<path opacity="0.1" d="M200.371 46.8164L150.636 159.769C149.87 159.19 149.111 158.59 148.366 157.982C143.559 154.006 139.373 149.333 135.946 144.12L178.905 46.5542C186.022 45.4079 193.284 45.4966 200.371 46.8164Z" fill="white"/>
<path opacity="0.1" d="M235.727 66.4125L188.965 172.61C179.253 172.621 169.667 170.397 160.951 166.111L212.011 50.1423C221.057 53.6799 229.17 59.2462 235.727 66.4125Z" fill="white"/>
<path d="M136.677 66.4608C145.127 56.1364 156.448 48.5493 169.209 44.6592C181.971 40.769 195.599 40.7503 208.371 44.6056C221.143 48.4609 232.485 56.0169 240.963 66.3182C249.44 76.6194 254.673 89.2033 255.999 102.478C257.325 115.754 254.684 129.124 248.412 140.898C242.139 152.673 232.515 162.323 220.758 168.628C209.001 174.933 195.638 177.61 182.359 176.321C169.08 175.031 156.482 169.833 146.158 161.384C132.314 150.053 123.539 133.687 121.761 115.886C119.983 98.0846 125.348 80.3063 136.677 66.4608ZM236.81 148.405C244.566 138.924 249.336 127.357 250.518 115.165C251.7 102.973 249.24 90.7044 243.45 79.9105C237.659 69.1165 228.798 60.282 217.987 54.5241C207.175 48.7661 194.899 46.3432 182.711 47.5619C170.523 48.7805 158.97 53.5859 149.512 61.3704C140.055 69.1549 133.118 79.569 129.58 91.2957C126.041 103.022 126.059 115.535 129.631 127.252C133.203 138.968 140.17 149.362 149.649 157.12C155.944 162.271 163.192 166.132 170.98 168.482C178.767 170.832 186.941 171.625 195.035 170.816C203.128 170.007 210.984 167.611 218.151 163.766C225.319 159.921 231.66 154.701 236.81 148.405Z" fill="#92E3E3"/>
<path d="M242.765 148.171C249.409 152.138 255.73 156.499 261.94 160.998C268.15 165.496 274.201 170.182 280.156 174.991C286.11 179.8 291.955 184.747 297.592 189.943C300.416 192.538 303.176 195.201 305.872 197.933C308.577 200.693 311.233 203.453 313.738 206.448C314.317 207.141 314.636 208.015 314.64 208.918C314.645 209.821 314.335 210.697 313.763 211.396C313.191 212.095 312.394 212.574 311.508 212.748C310.622 212.923 309.703 212.784 308.908 212.354C305.458 210.491 302.229 208.435 299.007 206.331C295.784 204.226 292.638 202.032 289.533 199.776C283.323 195.277 277.313 190.537 271.427 185.644C265.542 180.752 259.746 175.75 254.108 170.547C248.471 165.345 242.944 160.018 237.741 154.291C237.092 153.583 236.719 152.664 236.692 151.703C236.665 150.742 236.985 149.804 237.594 149.06C238.203 148.316 239.06 147.817 240.007 147.654C240.954 147.49 241.928 147.674 242.751 148.171H242.765Z" fill="#92E3E3"/>
<path d="M250.189 146.28L243.524 147.294L248.292 151.476C248.292 151.476 252.059 150.096 252.432 147.543L250.189 146.28Z" fill="#FFC3BD"/>
<path d="M239.922 151.124L244.11 154.408L249.223 151.069L243.524 147.308L239.922 151.124Z" fill="#FFC3BD"/>
</svg>
