<svg width="430" height="435" viewBox="0 0 430 435" fill="none" xmlns="http://www.w3.org/2000/svg">
<path d="M479 399.99H-44V400.252H479V399.99Z" fill="#EBEBEB"/>
<path d="M426.595 416.821H391.952V417.082H426.595V416.821Z" fill="#EBEBEB"/>
<path d="M302.456 419.666H293.366V419.927H302.456V419.666Z" fill="#EBEBEB"/>
<path d="M390.906 407.114H370.833V407.375H390.906V407.114Z" fill="#EBEBEB"/>
<path d="M56.0499 408.871H10.8732V409.132H56.0499V408.871Z" fill="#EBEBEB"/>
<path d="M71.9909 408.871H65.3698V409.132H71.9909V408.871Z" fill="#EBEBEB"/>
<path d="M191.507 413.285H93.5176V413.547H191.507V413.285Z" fill="#EBEBEB"/>
<path d="M203.902 353.339H1.92985C0.347617 353.336 -1.16887 352.706 -2.2867 351.586C-3.40453 350.466 -4.03235 348.948 -4.03235 347.366V63.4504C-4.01857 61.8772 -3.38467 60.373 -2.26833 59.2645C-1.15199 58.156 0.356637 57.5327 1.92985 57.53H203.902C205.486 57.53 207.005 58.1593 208.125 59.2794C209.245 60.3995 209.875 61.9186 209.875 63.5027V347.366C209.875 348.95 209.245 350.469 208.125 351.59C207.005 352.71 205.486 353.339 203.902 353.339ZM1.92985 57.7392C0.416972 57.742 -1.033 58.3449 -2.10179 59.4157C-3.17058 60.4864 -3.77085 61.9375 -3.77085 63.4504V347.366C-3.77085 348.879 -3.17058 350.33 -2.10179 351.401C-1.033 352.472 0.416972 353.075 1.92985 353.077H203.902C205.416 353.075 206.867 352.472 207.937 351.402C209.008 350.331 209.61 348.88 209.613 347.366V63.4504C209.61 61.9365 209.008 60.4855 207.937 59.415C206.867 58.3446 205.416 57.742 203.902 57.7392H1.92985Z" fill="#EBEBEB"/>
<path d="M430.162 353.339H228.18C226.596 353.336 225.079 352.706 223.959 351.586C222.84 350.467 222.21 348.949 222.207 347.366V63.4504C222.224 61.8763 222.86 60.3721 223.978 59.2639C225.096 58.1557 226.605 57.5327 228.18 57.53H430.162C431.734 57.5355 433.24 58.16 434.354 59.2682C435.468 60.3764 436.1 61.879 436.114 63.4504V347.366C436.114 348.947 435.488 350.463 434.372 351.582C433.257 352.702 431.743 353.333 430.162 353.339ZM228.18 57.7392C226.666 57.742 225.215 58.3446 224.144 59.415C223.074 60.4855 222.471 61.9365 222.469 63.4504V347.366C222.471 348.88 223.074 350.331 224.144 351.402C225.215 352.472 226.666 353.075 228.18 353.077H430.162C431.676 353.075 433.127 352.472 434.198 351.402C435.268 350.331 435.871 348.88 435.873 347.366V63.4504C435.871 61.9365 435.268 60.4855 434.198 59.415C433.127 58.3446 431.676 57.742 430.162 57.7392H228.18Z" fill="#EBEBEB"/>
<path d="M53.3303 400.001H-18.896C-11.0824 392.804 7.3586 393.296 7.3586 393.296C7.3586 393.296 -5.43398 379.562 -0.716515 370.744C4.00095 361.926 16.668 381.204 16.668 381.204C16.668 381.204 0.747885 352.502 6.65778 345.274C12.5677 338.046 28.4564 376.769 28.4564 376.769C28.4564 376.769 18.76 335.86 24.6071 334.72C30.4543 333.58 36.4792 373.516 36.4792 373.516C36.4792 373.516 34.3872 336.99 39.2721 338.036C44.1569 339.082 41.772 386.717 41.772 386.717C41.772 386.717 46.6882 362.397 48.7907 370.158C50.8931 377.92 46.6987 394.541 46.6987 394.541C48.2911 394.437 49.8631 394.944 51.095 395.958C52.3269 396.973 53.1262 398.418 53.3303 400.001Z" fill="#E0E0E0"/>
<path d="M49.0103 392.051C48.6337 386.821 36.4583 209.702 37.8495 143.825L32.7241 143.48C32.7241 143.48 26.3539 342.429 31.6781 391.382L49.0103 392.051Z" fill="#E0E0E0"/>
<path d="M36.4897 165.812L49.6693 155.091L50.9873 148.438L58.9159 136.357L60.6105 135.74L52.7968 149.4L52.4935 153.982L64.3551 151.806L69.3236 142.643L74.5746 138.522L75.3486 139.882L70.8822 143.867L67.2316 153.668L50.9768 157.747L34.0107 178.301L36.4897 165.812Z" fill="#E0E0E0"/>
<path d="M33.8956 155.854L33.2576 160.341L19.0006 146.691L10.2142 144.955L3.4361 140.279L3.9068 139.829L10.3397 143.93L17.4734 144.275L10.7163 135.865L4.0637 131.022L4.51348 130.74L11.187 135.06L22.17 146.179L21.0821 136.011L18.5403 131.691L18.2893 130.499L21.5005 135.206L29.8476 132.455L30.538 132.978L21.9817 136.022L23.5193 147.235L33.8956 155.854Z" fill="#E0E0E0"/>
<path d="M81.3526 138.333C81.6769 136.513 78.7899 135.195 75.6833 134.997C73.3843 134.844 71.1026 134.494 68.8634 133.951C69.1563 133.292 68.9471 132.507 69.3655 131.378C70.2755 128.909 69.7943 127.194 67.0538 125.102C64.3133 123.01 61.5728 123.376 55.5478 124.056C49.5229 124.735 50.4015 122.047 45.0041 119.464C39.6068 116.88 20.8102 117.957 17.3584 120.363C15.2664 121.807 7.15987 120.959 4.90051 124.547C2.64115 128.135 -10.6849 127.183 -8.91715 130.258C-7.14941 133.334 -5.04695 133.47 -5.39213 138.626C-5.73731 143.783 -1.08261 142.057 3.58255 143.992C8.24771 145.927 7.62011 142.298 10.6744 142.068C13.7287 141.838 12.8919 141.524 16.0299 140.07C19.1679 138.616 18.7182 140.446 23.6971 142.946C26.4376 144.327 27.4627 142.653 28.31 140.854C28.8121 142.015 28.2472 143.71 29.2723 145.676C30.0882 147.256 33.3831 147.601 36.5211 147.308C39.9624 153.835 41.4373 148.354 45.7468 148.856C50.2969 149.348 57.1377 145.718 60.3908 145.373C63.6439 145.028 63.8112 144.181 67.127 146.743C70.4429 149.306 84.6998 144.296 86.0492 141.712C87.3985 139.128 81.0388 140.164 81.3526 138.333Z" fill="#E0E0E0"/>
<path d="M142.094 402.062C141.77 397.616 131.404 246.103 132.554 189.724L128.161 189.431C128.161 189.431 122.712 359.583 127.272 401.434L142.094 402.062Z" fill="#E0E0E0"/>
<path d="M131.383 208.572L142.659 199.399L143.788 193.709L150.566 183.385L152.02 182.851L145.336 194.525L145.075 198.458L155.221 196.585L159.468 188.751L163.955 185.226L164.625 186.387L160.807 189.797L157.679 198.175L143.767 201.679L129.27 219.242L131.383 208.572Z" fill="#E0E0E0"/>
<path d="M129.165 200.048L128.621 203.886L116.425 192.213L108.915 190.728L103.12 186.732L103.517 186.345L109.019 189.849L115.128 190.142L109.344 182.956L103.653 178.814L104.04 178.573L109.752 182.266L119.145 191.774L118.214 183.081L116.038 179.389L115.818 178.364L118.559 182.391L125.703 180.038L126.299 180.487L118.977 183.092L120.295 192.684L129.165 200.048Z" fill="#E0E0E0"/>
<path d="M169.761 185.069C170.033 183.51 167.564 182.402 164.907 182.213C162.941 182.081 160.992 181.773 159.081 181.293C159.321 180.738 159.144 180.069 159.51 179.096C160.284 177.004 159.865 175.571 157.533 173.73C155.2 171.889 152.836 172.255 147.721 172.852C142.606 173.448 143.328 171.136 138.705 168.929C134.081 166.722 118.015 167.642 115.055 169.703C113.277 170.937 106.331 170.216 104.406 173.239C102.482 176.261 91.0804 175.487 92.5867 178.113C94.0929 180.738 95.892 180.864 95.5991 185.257C95.3063 189.65 99.2915 188.186 103.277 189.839C107.262 191.491 106.739 188.395 109.344 188.196C111.948 187.998 111.237 187.736 113.925 186.491C116.613 185.247 116.226 186.805 120.483 188.949C122.827 190.131 123.695 188.709 124.427 187.203C124.856 188.196 124.375 189.65 125.243 191.334C125.944 192.673 128.768 192.977 131.456 192.726C134.395 198.311 135.64 193.656 139.343 194.054C143.234 194.472 149.081 191.397 151.822 191.073C154.562 190.749 154.74 190.027 157.575 192.244C160.409 194.462 172.616 190.152 173.767 187.935C174.917 185.717 169.489 186.627 169.761 185.069Z" fill="#E0E0E0"/>
<path d="M105.442 329.051C104.469 322.158 86.1538 180.655 82.0012 92.8534H75.1394C75.1394 92.8534 78.9991 270.245 90.5051 334.898L105.442 329.051Z" fill="#E6E6E6"/>
<path d="M84.2083 399.3C84.2083 399.3 119.94 332.534 142.627 322.21C145.839 320.756 153.004 324.814 157.271 322.21C161.539 319.605 170.922 301.771 178.108 302.137C185.294 302.503 218.41 249.398 231.098 245.601L240.711 244.555C240.711 244.555 255.355 230.402 258.681 229.754C262.007 229.105 271.515 244.262 271.515 244.262L267.039 255.768C267.039 255.768 274.685 272.504 275.794 274.251C276.902 275.998 271.118 317.325 271.515 319.846C271.913 322.367 281.306 356.874 286.275 362.24C291.243 367.606 286.275 400.126 286.275 400.126L84.2083 399.3Z" fill="#E6E6E6"/>
<path d="M7.25403 399.059H189.363C169.614 388.275 123.119 388.945 123.119 388.945C123.119 388.945 155.368 368.37 143.475 355.19C131.582 342.011 99.7413 370.88 99.7413 370.88C99.7413 370.88 139.782 327.848 124.845 317.116C109.908 306.384 69.899 364.249 69.899 364.249C69.899 364.249 94.2289 303.026 79.5954 301.279C64.9619 299.533 49.6693 359.343 49.6693 359.343C49.6693 359.343 54.8993 304.689 42.6088 306.248C30.3183 307.806 36.2701 379.133 36.2701 379.133C36.2701 379.133 23.9168 342.774 18.624 354.385C13.3313 365.995 23.99 390.88 23.99 390.88C11.7309 390.974 8.22681 395.932 7.25403 399.059Z" fill="#F0F0F0"/>
<path d="M82.1685 122.236L98.7581 106.786L99.9087 97.8115L109.365 81.0127L111.572 80.0399L102.409 98.9202V105.05L118.005 101.085L123.799 88.4393L130.4 82.4771L131.561 84.2135L125.975 89.9246L121.99 103.293L100.725 110.207L79.9929 139.076L82.1685 122.236Z" fill="#E6E6E6"/>
<path d="M77.8276 109.213L77.3778 115.238L57.1691 98.3659L45.3179 96.8387L35.8726 91.2322L36.4583 90.5837L45.3912 95.458L54.9202 95.2802L45.1715 84.6947L35.8726 78.8475L36.4583 78.4292L45.7259 83.5859L61.3531 97.3931L58.9787 83.952L55.2026 78.4292L54.7738 76.8706L59.4599 82.8537L70.3173 78.4292L71.2901 79.0672L60.1711 83.8997L63.2359 98.6797L77.8276 109.213Z" fill="#E6E6E6"/>
<path d="M139.416 81.588C139.688 79.1404 135.724 77.6655 131.561 77.6655C128.489 77.6545 125.423 77.3816 122.398 76.8496C122.722 75.9501 122.398 74.9145 122.827 73.3769C123.82 70.0192 123.025 67.8436 119.197 65.239C115.369 62.6345 111.729 63.4294 103.831 64.9043C95.9339 66.3792 96.8125 62.6972 89.3859 59.7475C81.9593 56.7978 57.0541 59.9253 52.6609 63.4294C50.025 65.5214 39.1466 65.1449 36.4583 70.0611C33.7701 74.9773 15.9567 74.9668 18.5717 78.8893C21.1867 82.8118 23.99 82.8537 23.99 89.7259C23.99 96.5981 30.0359 93.9099 36.427 96.0019C42.818 98.0939 41.657 93.3869 45.6945 92.8011C49.7321 92.2154 48.5919 91.8806 52.6295 89.6631C56.6671 87.4456 56.2487 89.9142 63.0895 92.8011C66.8656 94.391 68.0789 92.0794 69.0412 89.6631C69.8153 91.1694 69.2191 93.481 70.7567 96.0019C71.991 98.0207 76.4155 98.188 80.5577 97.5186C85.7249 105.887 87.2103 98.5646 92.9842 98.7529C99.0824 98.9934 107.858 93.5961 112.095 92.8011C116.331 92.0062 116.571 91.002 121.268 94.0668C125.965 97.1316 144.447 89.2343 146.006 85.6988C147.564 82.1633 139.155 84.0775 139.416 81.588Z" fill="#F0F0F0"/>
<path d="M321.723 165.352C345.726 165.352 365.185 145.893 365.185 121.89C365.185 97.8874 345.726 78.4291 321.723 78.4291C297.72 78.4291 278.262 97.8874 278.262 121.89C278.262 145.893 297.72 165.352 321.723 165.352Z" fill="#FAFAFA"/>
<path d="M399.295 113.324C399.295 111.446 398.549 109.644 397.221 108.316C395.893 106.988 394.091 106.242 392.213 106.242C391.522 106.241 390.835 106.343 390.174 106.546C390.526 104.184 390.308 101.772 389.538 99.5122C388.767 97.2521 387.467 95.2092 385.746 93.5545C384.025 91.8997 381.932 90.681 379.643 90.0004C377.355 89.3198 374.936 89.1969 372.59 89.6422C371.122 87.1974 368.896 85.2984 366.25 84.2333C363.604 83.1682 360.683 82.9952 357.93 83.7405C355.177 84.4858 352.743 86.1088 350.996 88.3631C349.249 90.6175 348.285 93.3802 348.25 96.232H348.03C344.889 96.3245 341.908 97.6373 339.718 99.8919C337.529 102.147 336.304 105.165 336.304 108.308C336.304 111.451 337.529 114.47 339.718 116.724C341.908 118.979 344.889 120.292 348.03 120.384H392.37C394.217 120.343 395.975 119.582 397.269 118.263C398.563 116.944 399.29 115.171 399.295 113.324Z" fill="#F5F5F5"/>
<path d="M323.449 177.213C323.449 175.335 322.703 173.534 321.375 172.206C320.047 170.878 318.246 170.132 316.368 170.132C315.681 170.132 314.998 170.231 314.339 170.425C314.444 169.708 314.497 168.984 314.496 168.26C314.492 166.055 314.003 163.879 313.063 161.885C312.124 159.891 310.757 158.128 309.06 156.721C307.363 155.315 305.377 154.299 303.243 153.746C301.11 153.193 298.88 153.116 296.714 153.522C295.235 151.094 293.007 149.212 290.365 148.161C287.723 147.11 284.812 146.947 282.069 147.695C279.327 148.444 276.902 150.064 275.16 152.311C273.419 154.558 272.455 157.311 272.415 160.153H272.206C270.59 160.106 268.981 160.383 267.474 160.968C265.968 161.554 264.594 162.436 263.434 163.562C262.274 164.688 261.353 166.035 260.723 167.524C260.093 169.013 259.769 170.613 259.769 172.229C259.769 173.846 260.093 175.446 260.723 176.935C261.353 178.423 262.274 179.771 263.434 180.897C264.594 182.023 265.968 182.905 267.474 183.49C268.981 184.076 270.59 184.353 272.206 184.305H316.535C318.387 184.264 320.148 183.498 321.441 182.172C322.734 180.846 323.455 179.065 323.449 177.213Z" fill="#F5F5F5"/>
<path d="M446.396 266.73C446.396 265.8 446.213 264.879 445.857 264.02C445.501 263.161 444.98 262.38 444.322 261.723C443.664 261.065 442.884 260.543 442.025 260.188C441.166 259.832 440.245 259.649 439.315 259.649C438.627 259.646 437.943 259.749 437.286 259.952C437.596 257.823 437.445 255.651 436.842 253.585C436.24 251.52 435.199 249.608 433.792 247.98C432.385 246.351 430.645 245.045 428.688 244.149C426.732 243.253 424.605 242.789 422.453 242.787C421.527 242.79 420.603 242.874 419.692 243.038C418.213 240.61 415.985 238.729 413.343 237.678C410.702 236.627 407.79 236.463 405.047 237.212C402.305 237.96 399.88 239.58 398.139 241.828C396.397 244.075 395.434 246.827 395.393 249.67H395.184C391.983 249.67 388.912 250.941 386.649 253.205C384.385 255.469 383.113 258.539 383.113 261.741C383.113 264.942 384.385 268.012 386.649 270.276C388.912 272.54 391.983 273.811 395.184 273.811H439.513C441.358 273.762 443.11 272.994 444.396 271.671C445.682 270.348 446.4 268.575 446.396 266.73Z" fill="#F5F5F5"/>
<path d="M346.294 278.654C346.294 277.52 345.843 276.432 345.041 275.629C344.239 274.827 343.15 274.376 342.016 274.376C341.598 274.377 341.182 274.437 340.782 274.554C340.98 273.266 340.896 271.951 340.537 270.698C340.177 269.446 339.55 268.286 338.699 267.3C337.848 266.314 336.792 265.523 335.606 264.984C334.42 264.445 333.131 264.17 331.828 264.178C331.266 264.177 330.706 264.229 330.154 264.335C329.254 262.884 327.909 261.764 326.32 261.14C324.732 260.516 322.984 260.423 321.337 260.873C319.691 261.323 318.234 262.294 317.184 263.64C316.134 264.985 315.547 266.634 315.51 268.341H315.385C313.443 268.341 311.58 269.112 310.207 270.485C308.834 271.859 308.063 273.721 308.063 275.663C308.063 277.605 308.834 279.467 310.207 280.84C311.58 282.213 313.443 282.985 315.385 282.985H342.173C343.29 282.947 344.348 282.472 345.118 281.662C345.889 280.852 346.311 279.772 346.294 278.654Z" fill="#F5F5F5"/>
<path d="M234.769 95.0918C234.775 94.424 234.622 93.7643 234.325 93.1663C234.027 92.5684 233.592 92.0492 233.056 91.6507C232.52 91.2522 231.898 90.9858 231.24 90.8731C230.581 90.7604 229.906 90.8045 229.268 91.002C229.455 89.715 229.364 88.4027 228.999 87.1541C228.635 85.9056 228.006 84.75 227.156 83.7658C226.306 82.7816 225.254 81.9918 224.071 81.45C222.889 80.9082 221.604 80.6271 220.303 80.6257C219.742 80.6245 219.181 80.6771 218.63 80.7826C217.734 79.325 216.39 78.1972 214.799 77.5684C213.208 76.9396 211.456 76.8437 209.806 77.2952C208.156 77.7466 206.696 78.721 205.647 80.0721C204.598 81.4232 204.015 83.0782 203.986 84.7887H203.85C201.908 84.7887 200.045 85.5602 198.672 86.9333C197.299 88.3064 196.528 90.1688 196.528 92.1107C196.528 94.0526 197.299 95.915 198.672 97.2882C200.045 98.6613 201.908 99.4327 203.85 99.4327H230.648C231.766 99.3918 232.824 98.9145 233.594 98.103C234.365 97.2916 234.787 96.2106 234.769 95.0918Z" fill="#F5F5F5"/>
<path d="M217.5 447.228C329.508 447.228 420.309 441.927 420.309 435.387C420.309 428.848 329.508 423.546 217.5 423.546C105.492 423.546 14.691 428.848 14.691 435.387C14.691 441.927 105.492 447.228 217.5 447.228Z" fill="#F5F5F5"/>
<path d="M68.8843 435.9H30.5588C30.5588 435.9 38.1946 424.226 41.4477 425.711C45.6317 427.636 48.7697 417.061 53.4976 419.571C55.1503 420.45 54.3449 423.274 55.3804 424.414C57.1063 426.297 59.282 425.931 61.3635 426.967C65.4325 428.996 66.876 431.674 68.8843 435.9Z" fill="#92E3CD"/>
<path opacity="0.2" d="M68.8843 435.9H30.5588C30.5588 435.9 38.1946 424.226 41.4477 425.711C45.6317 427.636 48.7697 417.061 53.4976 419.571C55.1503 420.45 54.3449 423.274 55.3804 424.414C57.1063 426.297 59.282 425.931 61.3635 426.967C65.4325 428.996 66.876 431.674 68.8843 435.9Z" fill="black"/>
<path d="M34.7533 432.646C34.7533 432.646 37.2637 418.055 35.5274 415.91C33.791 413.766 33.4354 423.881 33.4354 423.881C33.4354 423.881 27.651 402.783 23.9168 402.71C20.1825 402.637 28.3518 421.004 28.3518 421.004C28.3518 421.004 12.3898 394.917 7.74559 397.344C3.10135 399.771 24.4816 422.898 24.4816 422.898C24.4816 422.898 12.7978 412.856 10.2246 415.691C7.65145 418.525 23.195 427.197 23.195 427.197C23.195 427.197 16.3437 425.659 16.3437 427.939C16.3437 430.22 27.8916 433.943 34.7533 432.646Z" fill="#92E3CD"/>
<path opacity="0.2" d="M34.7533 432.646C34.7533 432.646 37.2637 418.055 35.5274 415.91C33.791 413.766 33.4354 423.881 33.4354 423.881C33.4354 423.881 27.651 402.783 23.9168 402.71C20.1825 402.637 28.3518 421.004 28.3518 421.004C28.3518 421.004 12.3898 394.917 7.74559 397.344C3.10135 399.771 24.4816 422.898 24.4816 422.898C24.4816 422.898 12.7978 412.856 10.2246 415.691C7.65145 418.525 23.195 427.197 23.195 427.197C23.195 427.197 16.3437 425.659 16.3437 427.939C16.3437 430.22 27.8916 433.943 34.7533 432.646Z" fill="white"/>
<path d="M37.0545 430.565C37.0545 430.565 49.0521 428.389 50.2132 426.444C51.3743 424.498 43.477 427.113 43.477 427.113C43.477 427.113 58.121 416.653 57.1691 413.724C56.2172 410.796 44.2719 422.312 44.2719 422.312C44.2719 422.312 59.9619 402.605 56.7507 399.697C53.5395 396.79 41.7092 419.843 41.7092 419.843C41.7092 419.843 46.1756 407.94 43.2573 406.789C40.339 405.639 38.0273 420.063 38.0273 420.063C38.0273 420.063 37.2846 414.331 35.5169 414.98C33.7492 415.628 34.1153 425.628 37.0545 430.565Z" fill="#92E3CD"/>
<path opacity="0.2" d="M37.0545 430.565C37.0545 430.565 49.0521 428.389 50.2132 426.444C51.3743 424.498 43.477 427.113 43.477 427.113C43.477 427.113 58.121 416.653 57.1691 413.724C56.2172 410.796 44.2719 422.312 44.2719 422.312C44.2719 422.312 59.9619 402.605 56.7507 399.697C53.5395 396.79 41.7092 419.843 41.7092 419.843C41.7092 419.843 46.1756 407.94 43.2573 406.789C40.339 405.639 38.0273 420.063 38.0273 420.063C38.0273 420.063 37.2846 414.331 35.5169 414.98C33.7492 415.628 34.1153 425.628 37.0545 430.565Z" fill="white"/>
<path d="M37.9541 428.965C37.9541 428.965 49.5333 417.364 49.3345 414.321C49.1358 411.277 42.3996 420.22 42.3996 420.22C42.3996 420.22 50.5688 397.407 47.2635 394.928C43.9581 392.449 39.6067 414.321 39.6067 414.321C39.6067 414.321 41.7929 380.514 36.0503 379.803C30.3078 379.091 34.8684 413.588 34.8684 413.588C34.8684 413.588 30.6844 397.051 26.5736 397.972C22.4628 398.892 30.9668 416.664 30.9668 416.664C30.9668 416.664 25.7368 410.9 24.2933 412.971C22.8498 415.042 30.9145 425.722 37.9541 428.965Z" fill="#92E3CD"/>
<path opacity="0.4" d="M37.9541 428.965C37.9541 428.965 49.5333 417.364 49.3345 414.321C49.1358 411.277 42.3996 420.22 42.3996 420.22C42.3996 420.22 50.5688 397.407 47.2635 394.928C43.9581 392.449 39.6067 414.321 39.6067 414.321C39.6067 414.321 41.7929 380.514 36.0503 379.803C30.3078 379.091 34.8684 413.588 34.8684 413.588C34.8684 413.588 30.6844 397.051 26.5736 397.972C22.4628 398.892 30.9668 416.664 30.9668 416.664C30.9668 416.664 25.7368 410.9 24.2933 412.971C22.8498 415.042 30.9145 425.722 37.9541 428.965Z" fill="white"/>
<path d="M52.0019 435.9H21.4587C21.4587 435.9 27.5464 426.601 30.13 427.783C33.5086 429.32 36.0085 420.889 39.7428 422.887C41.0607 423.588 40.4122 425.848 41.2385 426.747C42.6088 428.253 44.3765 427.96 46.0083 428.787C49.2404 430.398 50.4015 432.531 52.0019 435.9Z" fill="#92E3CD"/>
<path d="M340.52 202.746C340.52 202.746 336.336 207.621 334.872 206.93C333.407 206.24 332.717 205.769 330.688 206.878C328.658 207.987 325.782 208.593 325.928 206.669C326.075 204.744 329.066 202.401 329.066 201.083C329.066 199.765 329.401 196.899 330.876 196.324C332.351 195.748 337.277 193.29 338.397 194.232C338.784 194.663 339.277 194.986 339.827 195.169C340.378 195.353 340.966 195.39 341.535 195.278C343.051 195.1 344.673 195.487 344.286 196.972C343.899 198.458 344.39 198.991 344.192 200.476C343.993 201.962 341.869 202.997 340.52 202.746Z" fill="#92E3CD"/>
<path opacity="0.6" d="M340.52 202.746C340.52 202.746 336.336 207.621 334.872 206.93C333.407 206.24 332.717 205.769 330.688 206.878C328.658 207.987 325.782 208.593 325.928 206.669C326.075 204.744 329.066 202.401 329.066 201.083C329.066 199.765 329.401 196.899 330.876 196.324C332.351 195.748 337.277 193.29 338.397 194.232C338.784 194.663 339.277 194.986 339.827 195.169C340.378 195.353 340.966 195.39 341.535 195.278C343.051 195.1 344.673 195.487 344.286 196.972C343.899 198.458 344.39 198.991 344.192 200.476C343.993 201.962 341.869 202.997 340.52 202.746Z" fill="white"/>
<path d="M352.852 193.123C353.019 192.979 353.173 192.822 353.313 192.652C354.285 191.481 354.536 189.619 355.928 188.991C356.657 188.75 357.439 188.713 358.187 188.887C362.371 189.493 370.09 190.173 370.373 195.717C370.593 200.016 365.854 202.976 364.787 206.888C363.814 210.445 363.25 214.723 360.007 216.47C357.915 217.589 355.373 217.223 353.124 216.47C350.875 215.717 348.742 214.65 346.409 214.378C342.947 213.949 337.079 216.731 334.004 214.733C329.338 211.71 334.83 203.227 336.922 200.215C338.774 197.407 341.579 195.364 344.819 194.462C347.33 193.855 350.739 194.953 352.852 193.123Z" fill="#92E3CD"/>
<path opacity="0.5" d="M352.852 193.123C353.019 192.979 353.173 192.822 353.313 192.652C354.285 191.481 354.536 189.619 355.928 188.991C356.657 188.75 357.439 188.713 358.187 188.887C362.371 189.493 370.09 190.173 370.373 195.717C370.593 200.016 365.854 202.976 364.787 206.888C363.814 210.445 363.25 214.723 360.007 216.47C357.915 217.589 355.373 217.223 353.124 216.47C350.875 215.717 348.742 214.65 346.409 214.378C342.947 213.949 337.079 216.731 334.004 214.733C329.338 211.71 334.83 203.227 336.922 200.215C338.774 197.407 341.579 195.364 344.819 194.462C347.33 193.855 350.739 194.953 352.852 193.123Z" fill="white"/>
<path d="M400.906 234.356C400.906 234.356 407.631 233.373 407.924 235.402C408.217 237.432 408.186 238.614 410.341 239.388C412.495 240.162 414.755 242.275 412.977 244.084C411.198 245.894 407.412 245.465 406.209 246.72C405.006 247.975 402.381 250.601 400.979 249.858C399.577 249.115 394.536 246.887 394.703 244.879C394.87 242.871 394.703 242.139 393.657 240.894C392.611 239.649 391.983 237.756 393.51 236.584C395.038 235.413 395.215 234.492 396.648 233.143C398.081 231.794 400.33 232.84 400.906 234.356Z" fill="#92E3CD"/>
<path opacity="0.6" d="M400.906 234.356C400.906 234.356 407.631 233.373 407.924 235.402C408.217 237.432 408.186 238.614 410.341 239.388C412.495 240.162 414.755 242.275 412.977 244.084C411.198 245.894 407.412 245.465 406.209 246.72C405.006 247.975 402.381 250.601 400.979 249.858C399.577 249.115 394.536 246.887 394.703 244.879C394.87 242.871 394.703 242.139 393.657 240.894C392.611 239.649 391.983 237.756 393.51 236.584C395.038 235.413 395.215 234.492 396.648 233.143C398.081 231.794 400.33 232.84 400.906 234.356Z" fill="white"/>
<path d="M381.481 215.56C381.318 215.549 381.154 215.549 380.99 215.56C379.871 215.675 378.772 216.522 377.716 216.135C377.205 215.886 376.773 215.498 376.471 215.016C374.557 212.505 370.865 208.164 373.595 205.1C375.687 202.715 379.745 203.625 382.339 202.119C384.693 200.748 387.214 198.792 389.818 199.556C390.63 199.876 391.369 200.356 391.993 200.967C392.616 201.578 393.111 202.307 393.448 203.112C394.119 204.719 394.938 206.26 395.895 207.715C397.485 209.733 402.025 211.323 402.6 213.991C403.489 218.007 396.188 219.629 393.531 220.12C391.105 220.648 388.57 220.276 386.398 219.074C384.755 218.039 383.532 215.696 381.481 215.56Z" fill="#92E3CD"/>
<path opacity="0.6" d="M381.481 215.56C381.318 215.549 381.154 215.549 380.99 215.56C379.871 215.675 378.772 216.522 377.716 216.135C377.205 215.886 376.773 215.498 376.471 215.016C374.557 212.505 370.865 208.164 373.595 205.1C375.687 202.715 379.745 203.625 382.339 202.119C384.693 200.748 387.214 198.792 389.818 199.556C390.63 199.876 391.369 200.356 391.993 200.967C392.616 201.578 393.111 202.307 393.448 203.112C394.119 204.719 394.938 206.26 395.895 207.715C397.485 209.733 402.025 211.323 402.6 213.991C403.489 218.007 396.188 219.629 393.531 220.12C391.105 220.648 388.57 220.276 386.398 219.074C384.755 218.039 383.532 215.696 381.481 215.56Z" fill="white"/>
<path d="M364.986 217.108C365.112 217.008 365.231 216.9 365.342 216.784C366.126 215.968 366.388 214.608 367.434 214.231C367.981 214.075 368.56 214.075 369.107 214.231C372.193 214.911 377.81 215.842 377.716 219.942C377.632 223.08 373.982 225.047 372.967 227.871C372.057 230.434 371.398 233.551 368.919 234.66C367.278 235.205 365.487 235.078 363.94 234.304C362.395 233.505 360.777 232.856 359.108 232.369C356.576 231.856 352.099 233.582 349.945 231.94C346.671 229.451 351.189 223.499 352.905 221.407C354.422 219.435 356.604 218.082 359.045 217.599C360.896 217.327 363.344 218.332 364.986 217.108Z" fill="#92E3CD"/>
<path opacity="0.5" d="M364.986 217.108C365.112 217.008 365.231 216.9 365.342 216.784C366.126 215.968 366.388 214.608 367.434 214.231C367.981 214.075 368.56 214.075 369.107 214.231C372.193 214.911 377.81 215.842 377.716 219.942C377.632 223.08 373.982 225.047 372.967 227.871C372.057 230.434 371.398 233.551 368.919 234.66C367.278 235.205 365.487 235.078 363.94 234.304C362.395 233.505 360.777 232.856 359.108 232.369C356.576 231.856 352.099 233.582 349.945 231.94C346.671 229.451 351.189 223.499 352.905 221.407C354.422 219.435 356.604 218.082 359.045 217.599C360.896 217.327 363.344 218.332 364.986 217.108Z" fill="white"/>
<path d="M347.738 237.777C347.825 237.712 347.906 237.638 347.978 237.557C348.512 237.013 348.7 236.093 349.411 235.831C349.781 235.728 350.171 235.728 350.541 235.831C352.633 236.281 356.409 236.877 356.346 239.67C356.294 241.825 353.825 243.111 353.145 245.015C352.528 246.751 352.099 248.854 350.415 249.597C349.858 249.788 349.268 249.865 348.681 249.824C348.093 249.782 347.52 249.623 346.995 249.356C345.952 248.816 344.859 248.378 343.731 248.049C342.026 247.703 339.014 248.864 337.56 247.756C335.353 246.082 338.397 242.065 339.558 240.653C340.577 239.325 342.046 238.414 343.69 238.091C344.966 237.934 346.618 238.603 347.738 237.777Z" fill="#92E3CD"/>
<path opacity="0.5" d="M347.738 237.777C347.825 237.712 347.906 237.638 347.978 237.557C348.512 237.013 348.7 236.093 349.411 235.831C349.781 235.728 350.171 235.728 350.541 235.831C352.633 236.281 356.409 236.877 356.346 239.67C356.294 241.825 353.825 243.111 353.145 245.015C352.528 246.751 352.099 248.854 350.415 249.597C349.858 249.788 349.268 249.865 348.681 249.824C348.093 249.782 347.52 249.623 346.995 249.356C345.952 248.816 344.859 248.378 343.731 248.049C342.026 247.703 339.014 248.864 337.56 247.756C335.353 246.082 338.397 242.065 339.558 240.653C340.577 239.325 342.046 238.414 343.69 238.091C344.966 237.934 346.618 238.603 347.738 237.777Z" fill="white"/>
<path d="M377.747 390.963C377.747 390.963 385.603 391.141 390.163 367.502C394.724 343.862 395.948 336.122 400.09 338.099C404.232 340.076 392.998 372.7 392.998 372.7C392.998 372.7 397.611 374.374 404.232 359.332C410.853 344.291 415.403 333.287 420.372 338.988C425.34 344.688 409.608 369.112 399.054 379.039C399.054 379.039 400.916 382.763 409.19 376.142C417.464 369.52 422.851 363.412 426.972 367.502C431.093 371.592 431.156 375.734 424.493 375.734C417.83 375.734 405.822 383.485 403.782 390.963C403.782 390.963 412.903 388.871 420.361 390.963C427.819 393.055 432.359 400.461 424.493 403.202C416.627 405.942 409.138 397.145 403.782 403.202C403.782 403.202 419.117 405.084 420.361 415.858C421.606 426.632 401.732 430.251 401.732 430.251L336.744 412.992L347.539 383.882L377.747 390.963Z" fill="#92E3CD"/>
<path d="M357.026 391.654C357.026 391.654 367.538 341.32 371.743 333.622C371.743 333.622 382.517 318.915 383.971 311.206C385.425 303.497 375.446 255.088 375.446 255.088L347.204 242.065C347.204 242.065 339.495 226.375 333.878 222.704L336.692 219.817C336.692 219.817 347.905 230.057 350.363 240.298L375.467 248.519L373.5 237.641L363.103 226.208L358.992 203.552L363.103 203.133L366.963 221.281L375.446 228.342L381.889 213.028L381.544 201.7L383.95 200.069L384.86 211.292L396.994 191.983L399.535 194.159L384.891 216.815L384.002 232.254L387.203 242.369L401.23 235.047L407.872 222.38L411.376 221.334L405.1 237.599L391.774 252.724C391.774 252.724 398.437 297.42 403.343 309.208C403.343 309.208 388.971 333.475 390.718 344.96C391.952 352.622 393.593 360.213 395.634 367.7L388.971 423.829L350.342 420.743L357.026 391.654Z" fill="#92E3CD"/>
<path opacity="0.2" d="M357.026 391.654C357.026 391.654 367.538 341.32 371.743 333.622C371.743 333.622 382.517 318.915 383.971 311.206C385.425 303.497 375.446 255.088 375.446 255.088L347.204 242.065C347.204 242.065 339.495 226.375 333.878 222.704L336.692 219.817C336.692 219.817 347.905 230.057 350.363 240.298L375.467 248.519L373.5 237.641L363.103 226.208L358.992 203.552L363.103 203.133L366.963 221.281L375.446 228.342L381.889 213.028L381.544 201.7L383.95 200.069L384.86 211.292L396.994 191.983L399.535 194.159L384.891 216.815L384.002 232.254L387.203 242.369L401.23 235.047L407.872 222.38L411.376 221.334L405.1 237.599L391.774 252.724C391.774 252.724 398.437 297.42 403.343 309.208C403.343 309.208 388.971 333.475 390.718 344.96C391.952 352.622 393.593 360.213 395.634 367.7L388.971 423.829L350.342 420.743L357.026 391.654Z" fill="white"/>
<path d="M254.016 419.99C250.887 421.378 248.195 423.592 246.23 426.395C244.266 429.199 243.102 432.485 242.866 435.9H290.72L295.448 411.695L273.597 404.739C273.597 404.739 272.237 372.941 267.467 368.903C262.698 364.866 261.871 375.179 265.595 391.099C265.595 391.099 256.077 380.482 249.455 383.223C242.834 385.964 261.537 407.103 261.537 407.103C261.537 407.103 249.884 403.515 244.089 408.599C238.295 413.683 254.016 419.99 254.016 419.99Z" fill="#92E3CD"/>
<path d="M257.53 430.513C257.53 430.513 235.721 428.766 228.41 435.9H284.496V427.113C284.496 427.113 273.879 407.563 268.503 407.103C263.127 406.643 267.457 423.536 267.457 423.536C267.457 423.536 255.867 409.76 250.062 416.559C244.257 423.358 257.53 430.513 257.53 430.513Z" fill="#92E3CD"/>
<path opacity="0.2" d="M257.53 430.513C257.53 430.513 235.721 428.766 228.41 435.9H284.496V427.113C284.496 427.113 273.879 407.563 268.503 407.103C263.127 406.643 267.457 423.536 267.457 423.536C267.457 423.536 255.867 409.76 250.062 416.559C244.257 423.358 257.53 430.513 257.53 430.513Z" fill="white"/>
<path d="M368.365 414.038C368.365 414.038 377.193 376.267 375.54 369.594C373.887 362.92 337.748 323.444 331.263 318.34C324.778 313.235 307.676 316.478 280.637 332.795C253.597 349.113 276.222 432.082 278.43 433.358C280.637 434.634 368.365 414.038 368.365 414.038Z" fill="#92E3CD"/>
<path opacity="0.6" d="M368.365 414.038C368.365 414.038 280.637 434.644 278.409 433.379C276.651 432.333 261.965 379.583 269.685 349.866C271.651 342.241 275.103 336.143 280.616 332.816C307.655 316.499 324.757 313.267 331.242 318.361C337.727 323.455 373.867 362.92 375.519 369.615C377.172 376.309 368.365 414.038 368.365 414.038Z" fill="white"/>
<path opacity="0.1" d="M368.365 414.038C368.365 414.038 280.637 434.644 278.409 433.379C276.651 432.333 261.965 379.583 269.685 349.866C271.902 368.412 275.187 394.154 276.756 397.438C279.235 402.668 304.527 397.438 304.527 397.438L324.338 379.886L327.236 393.055L349.997 389.917L368.365 414.038Z" fill="black"/>
<path d="M413.269 435.9L406.439 424.519L392.998 415.785C392.998 415.785 380.509 399.143 375.54 395.535C370.572 391.926 362.298 396.863 362.298 396.863C362.298 396.863 350.154 402.26 345.74 406.455C341.326 410.649 324.82 408.693 316.452 411.36C308.084 414.028 291.62 431.234 284.444 430.795C281.16 430.607 277.53 433.117 274.559 435.9H413.269Z" fill="#263238"/>
<path d="M342.162 228.415C342.162 228.415 332.748 233.415 331.263 230.507C329.778 227.599 329.171 225.936 325.604 225.936C322.037 225.936 317.602 224.001 319.265 220.413C320.929 216.825 326.713 215.455 327.811 212.966C328.91 210.476 331.399 205.246 333.878 205.644C336.357 206.041 344.913 206.606 345.74 209.65C346.566 212.694 347.12 213.698 349.327 214.984C351.534 216.271 353.511 218.75 351.817 221.26C350.122 223.771 350.436 225.298 349.055 227.976C347.675 230.653 343.815 230.35 342.162 228.415Z" fill="#92E3CD"/>
<path opacity="0.6" d="M342.162 228.415C342.162 228.415 332.748 233.415 331.263 230.507C329.778 227.599 329.171 225.936 325.604 225.936C322.037 225.936 317.602 224.001 319.265 220.413C320.929 216.825 326.713 215.455 327.811 212.966C328.91 210.476 331.399 205.246 333.878 205.644C336.357 206.041 344.913 206.606 345.74 209.65C346.566 212.694 347.12 213.698 349.327 214.984C351.534 216.271 353.511 218.75 351.817 221.26C350.122 223.771 350.436 225.298 349.055 227.976C347.675 230.653 343.815 230.35 342.162 228.415Z" fill="white"/>
<path d="M402.286 186.188C402.286 186.188 409.211 186.481 409.608 188.228C410.006 189.975 410.006 190.895 412.276 191.889C414.545 192.882 416.962 195.027 415.194 196.167C413.426 197.307 409.493 196.386 408.301 197.213C407.108 198.039 404.483 199.765 402.998 198.897C401.512 198.029 396.199 195.414 396.282 193.792C396.394 193.163 396.342 192.515 396.129 191.912C395.916 191.309 395.551 190.771 395.069 190.351C393.929 189.159 393.207 187.485 394.745 186.805C396.282 186.125 396.429 185.33 397.83 184.493C399.232 183.657 401.596 184.818 402.286 186.188Z" fill="#92E3CD"/>
<path opacity="0.6" d="M402.286 186.188C402.286 186.188 409.211 186.481 409.608 188.228C410.006 189.975 410.006 190.895 412.276 191.889C414.545 192.882 416.962 195.027 415.194 196.167C413.426 197.307 409.493 196.386 408.301 197.213C407.108 198.039 404.483 199.765 402.998 198.897C401.512 198.029 396.199 195.414 396.282 193.792C396.394 193.163 396.342 192.515 396.129 191.912C395.916 191.309 395.551 190.771 395.069 190.351C393.929 189.159 393.207 187.485 394.745 186.805C396.282 186.125 396.429 185.33 397.83 184.493C399.232 183.657 401.596 184.818 402.286 186.188Z" fill="white"/>
<path d="M405.424 227.4C405.261 227.39 405.096 227.39 404.933 227.4C403.814 227.516 402.715 228.373 401.659 227.976C401.15 227.722 400.72 227.335 400.414 226.857C398.5 224.346 394.818 220.005 397.538 216.94C399.63 214.566 403.688 215.466 406.282 213.959C408.636 212.6 411.156 210.633 413.771 211.397C414.583 211.717 415.323 212.197 415.946 212.808C416.569 213.419 417.064 214.148 417.401 214.953C418.062 216.563 418.879 218.104 419.838 219.555C421.439 221.585 425.968 223.164 426.554 225.831C427.432 229.848 420.142 231.469 417.485 231.961C415.055 232.493 412.515 232.121 410.341 230.915C408.709 229.879 407.485 227.536 405.424 227.4Z" fill="#92E3CD"/>
<path opacity="0.5" d="M405.424 227.4C405.261 227.39 405.096 227.39 404.933 227.4C403.814 227.516 402.715 228.373 401.659 227.976C401.15 227.722 400.72 227.335 400.414 226.857C398.5 224.346 394.818 220.005 397.538 216.94C399.63 214.566 403.688 215.466 406.282 213.959C408.636 212.6 411.156 210.633 413.771 211.397C414.583 211.717 415.323 212.197 415.946 212.808C416.569 213.419 417.064 214.148 417.401 214.953C418.062 216.563 418.879 218.104 419.838 219.555C421.439 221.585 425.968 223.164 426.554 225.831C427.432 229.848 420.142 231.469 417.485 231.961C415.055 232.493 412.515 232.121 410.341 230.915C408.709 229.879 407.485 227.536 405.424 227.4Z" fill="white"/>
<path d="M390.435 185.968C397.485 189.41 398.709 185.519 400.362 188.343C402.014 191.167 410.299 189.797 408.918 193.656C407.537 197.516 403.123 201.679 405.885 203.604C408.646 205.529 405.759 205.246 399.755 205.696C393.751 206.146 396.512 211.522 390.435 208.248C384.358 204.974 379.975 209.169 377.193 209.294C374.41 209.42 368.365 211.909 365.603 205.696C362.842 199.483 366.158 197.276 366.712 192.035C367.266 186.795 359.264 185.968 368.365 181.575C377.465 177.182 384.829 178.27 386.523 181.575C388.218 184.881 387.674 184.619 390.435 185.968Z" fill="#92E3CD"/>
<path opacity="0.5" d="M390.435 185.968C397.485 189.41 398.709 185.519 400.362 188.343C402.014 191.167 410.299 189.797 408.918 193.656C407.537 197.516 403.123 201.679 405.885 203.604C408.646 205.529 405.759 205.246 399.755 205.696C393.751 206.146 396.512 211.522 390.435 208.248C384.358 204.974 379.975 209.169 377.193 209.294C374.41 209.42 368.365 211.909 365.603 205.696C362.842 199.483 366.158 197.276 366.712 192.035C367.266 186.795 359.264 185.968 368.365 181.575C377.465 177.182 384.829 178.27 386.523 181.575C388.218 184.881 387.674 184.619 390.435 185.968Z" fill="white"/>
<path d="M352.371 200.832C355.572 198.981 356.451 194.294 358.846 195.058C361.241 195.822 366.011 198.112 368.312 196.857C370.614 195.602 373.877 195.665 374.097 198.029C374.316 200.393 371.042 204.305 372.35 206.826C373.657 209.346 372.758 211.941 368.312 212.6C363.867 213.258 361.461 214.995 357.978 216.302C354.495 217.61 355.143 213.164 351.44 211.763C347.737 210.361 342.183 206.679 352.371 200.832Z" fill="#92E3CD"/>
<path opacity="0.6" d="M352.371 200.832C355.572 198.981 356.451 194.294 358.846 195.058C361.241 195.822 366.011 198.112 368.312 196.857C370.614 195.602 373.877 195.665 374.097 198.029C374.316 200.393 371.042 204.305 372.35 206.826C373.657 209.346 372.758 211.941 368.312 212.6C363.867 213.258 361.461 214.995 357.978 216.302C354.495 217.61 355.143 213.164 351.44 211.763C347.737 210.361 342.183 206.679 352.371 200.832Z" fill="white"/>
<path d="M408.918 217.924C405.383 216.878 401.355 219.388 400.278 217.118C399.201 214.849 397.632 209.796 395.142 208.97C392.653 208.144 390.477 205.717 392.057 203.939C393.636 202.161 398.74 201.847 399.682 199.211C400.623 196.575 403.134 195.435 406.648 198.238C410.163 201.041 413.081 201.617 416.407 203.269C419.734 204.922 416.01 207.516 417.548 211.146C419.085 214.775 420.142 221.355 408.918 217.924Z" fill="#92E3CD"/>
<path opacity="0.6" d="M408.918 217.924C405.383 216.878 401.355 219.388 400.278 217.118C399.201 214.849 397.632 209.796 395.142 208.97C392.653 208.144 390.477 205.717 392.057 203.939C393.636 202.161 398.74 201.847 399.682 199.211C400.623 196.575 403.134 195.435 406.648 198.238C410.163 201.041 413.081 201.617 416.407 203.269C419.734 204.922 416.01 207.516 417.548 211.146C419.085 214.775 420.142 221.355 408.918 217.924Z" fill="white"/>
<path d="M368.187 189.326C368.187 189.326 362.957 193.039 361.681 192.025C360.405 191.01 359.871 190.372 357.654 190.979C355.436 191.585 352.476 191.449 353.083 189.619C353.689 187.788 357.12 186.23 357.518 184.964C357.915 183.699 358.846 181.01 360.425 180.78C362.005 180.55 367.371 179.389 368.229 180.571C368.508 181.085 368.918 181.516 369.418 181.821C369.918 182.126 370.489 182.294 371.074 182.307C372.58 182.506 374.065 183.27 373.333 184.619C372.601 185.968 372.946 186.606 372.402 187.998C371.858 189.389 369.432 189.839 368.187 189.326Z" fill="#92E3CD"/>
<path opacity="0.6" d="M368.187 189.326C368.187 189.326 362.957 193.039 361.681 192.025C360.405 191.01 359.871 190.372 357.654 190.979C355.436 191.585 352.476 191.449 353.083 189.619C353.689 187.788 357.12 186.23 357.518 184.964C357.915 183.699 358.846 181.01 360.425 180.78C362.005 180.55 367.371 179.389 368.229 180.571C368.508 181.085 368.918 181.516 369.418 181.821C369.918 182.126 370.489 182.294 371.074 182.307C372.58 182.506 374.065 183.27 373.333 184.619C372.601 185.968 372.946 186.606 372.402 187.998C371.858 189.389 369.432 189.839 368.187 189.326Z" fill="white"/>
<path d="M82.8902 181.125C82.8902 181.125 84.0722 170.299 85.2123 169.818C86.3525 169.337 92.1369 170.99 94.2079 172.339C95.3913 173.048 96.2762 174.163 96.6974 175.477V178.866L99.8982 182.998L95.9129 187.726L89.5532 183.939C89.5532 183.939 82.7647 182.182 82.8902 181.125Z" fill="#E4897B"/>
<path d="M84.4069 187.119L102.858 194.755L93.026 187.715L100.766 179.891C100.766 179.891 122.544 189.305 122.105 199.765C121.665 210.225 106.352 210.622 85.2542 208.133L84.4069 187.119Z" fill="#92E3CD"/>
<path opacity="0.1" d="M122.063 199.786C121.697 208.562 110.818 210.246 94.8669 209.106C91.8335 208.886 88.5909 208.562 85.2333 208.164L84.909 199.796L84.4279 187.192L102.879 194.828L93.026 187.715L100.766 179.891C100.766 179.891 122.502 189.326 122.063 199.786Z" fill="black"/>
<path opacity="0.2" d="M94.846 209.074C91.8126 208.855 88.57 208.53 85.2123 208.133L84.8881 199.765C89.2011 201.597 92.728 204.894 94.846 209.074Z" fill="black"/>
<path d="M48.2781 158.825C48.0898 158.898 38.8641 158.647 36.7721 166.649C34.6801 174.651 41.4268 178.939 40.4435 186.836C39.4603 194.734 36.1549 201.69 37.8076 204.765C39.4603 207.84 49.3136 209.535 51.6044 199.388C53.8951 189.242 44.2196 172.59 48.2572 167.642C52.2947 162.695 48.2781 158.825 48.2781 158.825Z" fill="#263238"/>
<path d="M79.8568 207.851C79.8568 207.851 78.6853 183.123 54.9829 183.385C31.2806 183.646 26.584 198.301 32.358 209.597C33.888 218.596 34.8799 227.677 35.3286 236.793C35.7261 249.345 30.4124 260.056 50.8303 261.437C71.2482 262.818 82.3358 257.787 82.8693 255.161C83.4028 252.536 80.8714 218.039 79.8568 207.851Z" fill="#263238"/>
<path opacity="0.2" d="M79.8568 207.851C79.8568 207.851 78.6853 183.123 54.9829 183.385C31.2806 183.646 26.584 198.301 32.358 209.597C33.888 218.596 34.8799 227.677 35.3286 236.793C35.7261 249.345 30.4124 260.056 50.8303 261.437C71.2482 262.818 82.3358 257.787 82.8693 255.161C83.4028 252.536 80.8714 218.039 79.8568 207.851Z" fill="white"/>
<path d="M121.006 424.195L115.285 426.214C115.285 426.214 98.0049 386.466 90.9863 352.115C85.4439 341.438 80.5536 330.435 76.3423 319.166C75.7774 317.66 75.2335 316.133 74.7 314.595C73.2147 310.327 71.834 305.934 70.6834 301.583C68.4659 293.215 67.0538 285.045 67.2002 277.901L89.616 282.755L92.9737 297.514L94.7519 305.369L96.5719 313.371L102.335 338.904L121.006 424.195Z" fill="#E4897B"/>
<path opacity="0.2" d="M94.7309 305.369L74.6791 314.595C73.1938 310.327 71.8131 305.934 70.6625 301.583L92.9527 297.514L94.7309 305.369Z" fill="black"/>
<path d="M86.6454 268.069L95.9129 300.202L69.2295 308.403L63.7903 277.901C63.7903 277.901 74.198 262.933 86.6454 268.069Z" fill="#92E3CD"/>
<path opacity="0.6" d="M95.9129 300.202L76.2063 306.258L69.47 308.35L69.2295 308.423L65.0455 284.878L63.8007 277.922C63.8007 277.922 74.198 262.912 86.6558 268.058L95.3376 298.152L95.9129 300.202Z" fill="white"/>
<path d="M97.9212 301.949L76.7188 309.564L71.834 311.321L69.47 308.371L69.2504 308.089L76.0808 305.495L95.3271 298.173L96.8752 297.587L97.9212 301.949Z" fill="#92E3CD"/>
<path opacity="0.2" d="M74.7942 305.871L75.0348 309.166L70.014 310.516L67.922 307.378L67.6814 307.43L65.4116 283.623C66.1228 281.531 66.5622 280.328 66.5622 280.328L79.8359 271.092C79.8359 271.092 79.428 277.19 73.152 284.512L74.6896 305.087L74.7942 305.871Z" fill="black"/>
<path d="M112.9 424.216C112.9 423.463 122.314 424.059 122.314 424.059C122.314 424.059 128.077 429.916 133.674 431.234C139.27 432.552 136.142 435.9 129.887 435.9H114.343C109.908 435.9 112.68 432.123 112.9 424.216Z" fill="#263238"/>
<path d="M123.287 425.262L123.214 425.21C123.208 425.185 123.208 425.16 123.214 425.136C123.209 425.112 123.209 425.087 123.214 425.063C123.208 425.028 123.208 424.993 123.214 424.958C123.214 424.843 124.04 422.678 125.306 422.155C125.496 422.067 125.703 422.021 125.912 422.021C126.122 422.021 126.329 422.067 126.519 422.155C126.948 422.354 127.146 422.626 127.136 422.94C127.136 423.431 126.435 423.933 125.682 424.331C126.387 424.213 127.111 424.293 127.774 424.561C127.896 424.629 128.003 424.72 128.09 424.829C128.176 424.939 128.239 425.065 128.276 425.199C128.357 425.375 128.378 425.572 128.336 425.761C128.295 425.949 128.193 426.119 128.046 426.245C127.807 426.418 127.514 426.5 127.22 426.475C125.847 426.309 124.515 425.898 123.287 425.262ZM124.144 425.105C125.525 425.691 127.282 426.214 127.68 425.848C127.68 425.848 127.837 425.722 127.743 425.356C127.727 425.284 127.695 425.217 127.65 425.159C127.605 425.101 127.547 425.054 127.481 425.021C127.133 424.868 126.753 424.8 126.372 424.822C125.622 424.845 124.876 424.94 124.144 425.105ZM125.452 422.584C124.716 423.068 124.155 423.776 123.852 424.603C125.232 424.069 126.571 423.348 126.603 422.929C126.603 422.793 126.393 422.668 126.268 422.615C126.135 422.547 125.988 422.512 125.839 422.511C125.706 422.509 125.575 422.534 125.452 422.584Z" fill="#92E3CD"/>
<path d="M69.7629 428.316L63.7484 429.101C63.7484 429.101 55.1189 386.622 55.3804 351.571C52.1762 339.972 49.6751 328.19 47.8911 316.289C45.7991 301.938 44.7531 285.955 47.5354 274.031L68.4555 283.445L68.8843 314.825L69.24 340.975L69.7629 428.316Z" fill="#E4897B"/>
<path opacity="0.2" d="M68.8843 314.846L47.8911 316.31C45.7991 301.959 44.7531 285.976 47.5354 274.052L68.4555 283.466L68.8843 314.846Z" fill="black"/>
<path d="M61.646 424.216C61.646 423.463 71.06 424.059 71.06 424.059C71.06 424.059 76.8235 429.916 82.4195 431.234C88.0156 432.552 84.8881 435.9 78.633 435.9H63.0895C58.6544 435.9 61.4263 432.123 61.646 424.216Z" fill="#263238"/>
<path d="M72.0327 425.262L71.9595 425.21C71.9541 425.185 71.9541 425.16 71.9595 425.136C71.955 425.112 71.955 425.087 71.9595 425.063C71.9538 425.028 71.9538 424.993 71.9595 424.958C71.9595 424.843 72.7858 422.678 74.0515 422.155C74.2416 422.067 74.4487 422.021 74.6582 422.021C74.8677 422.021 75.0747 422.067 75.2649 422.155C75.6937 422.354 75.8925 422.626 75.882 422.94C75.882 423.431 75.1812 423.933 74.4281 424.331C75.1333 424.213 75.8574 424.293 76.5201 424.561C76.6421 424.629 76.7493 424.72 76.8355 424.829C76.9218 424.939 76.9852 425.065 77.0221 425.199C77.1027 425.375 77.1238 425.572 77.0823 425.761C77.0407 425.949 76.9389 426.119 76.792 426.245C76.553 426.418 76.2598 426.5 75.9657 426.475C74.5928 426.309 73.2608 425.898 72.0327 425.262ZM72.8904 425.105C74.2712 425.691 76.0284 426.214 76.4259 425.848C76.4259 425.848 76.5828 425.722 76.4887 425.356C76.4729 425.284 76.4412 425.217 76.3959 425.159C76.3507 425.101 76.293 425.054 76.2272 425.021C75.8787 424.868 75.4986 424.8 75.1184 424.822C74.3684 424.845 73.6223 424.94 72.8904 425.105ZM74.1979 422.584C73.462 423.068 72.9009 423.776 72.5976 424.603C73.9783 424.069 75.3172 423.348 75.3485 422.929C75.3485 422.793 75.1393 422.668 75.0138 422.615C74.881 422.547 74.7341 422.512 74.585 422.511C74.4523 422.509 74.3207 422.534 74.1979 422.584Z" fill="#92E3CD"/>
<path d="M71.1646 310.034L70.3801 273.853L88.319 268.623C88.319 268.623 86.9069 252.023 84.8149 243.833C84.8149 243.833 55.6838 236.584 51.2487 246.458C51.2487 246.458 51.2487 246.615 51.186 246.668L51.1127 246.762C51.1127 246.762 33.2052 260.067 45.2447 310.034H71.1646Z" fill="#92E3CD"/>
<path opacity="0.6" d="M71.1646 310.034L70.3801 273.853L88.319 268.623C88.319 268.623 86.9069 252.023 84.8149 243.833C84.8149 243.833 55.6838 236.584 51.2487 246.458C51.2487 246.458 51.2487 246.615 51.186 246.668L51.1127 246.762C51.1127 246.762 33.2052 260.067 45.2447 310.034H71.1646Z" fill="white"/>
<path d="M50.9349 241.448V246.385L84.4069 243.802V237.965L50.9349 241.448Z" fill="#263238"/>
<path d="M62.2802 239.364L60.6088 239.449L61.0451 247.973L62.7165 247.888L62.2802 239.364Z" fill="#92E3CD"/>
<path d="M76.8965 239.158L69.5203 239.819L70.0216 245.413L77.3977 244.753L76.8965 239.158Z" fill="white"/>
<path d="M82.8606 237.114L81.1892 237.199L81.624 245.723L83.2954 245.638L82.8606 237.114Z" fill="#92E3CD"/>
<path opacity="0.6" d="M62.2802 239.364L60.6088 239.449L61.0451 247.973L62.7165 247.888L62.2802 239.364Z" fill="white"/>
<path opacity="0.6" d="M82.8606 237.114L81.1892 237.199L81.624 245.723L83.2954 245.638L82.8606 237.114Z" fill="white"/>
<path d="M84.8149 238.551L51.0814 241.469C50.2864 228.917 49.4914 220.842 42.0648 198.499C41.4163 196.54 40.719 194.448 39.9728 192.223C44.548 190.768 49.2217 189.642 53.9579 188.855C58.9628 187.967 64.024 187.433 69.1039 187.255C75.6728 187.255 83.204 187.945 83.204 187.945C83.204 187.945 84.25 188.196 84.9508 195.152C85.568 201.742 86.1642 214.796 84.8149 238.551Z" fill="#263238"/>
<path opacity="0.2" d="M84.8149 238.551L51.0918 241.469C50.7459 232.862 49.4836 224.317 47.3262 215.978C46.458 212.61 45.3702 208.823 43.9895 204.472C43.4037 202.61 42.7657 200.644 42.0648 198.541C41.364 196.439 40.726 194.504 39.9728 192.265C44.551 190.805 49.2282 189.676 53.9683 188.887C58.9731 187.998 64.0344 187.463 69.1144 187.286C75.6728 187.234 83.2145 187.977 83.2145 187.977C83.2145 187.977 84.2605 188.238 84.9613 195.184C85.568 201.731 86.1747 214.796 84.8149 238.551Z" fill="white"/>
<path d="M43.0899 308.549L72.6394 308.288L72.1164 312.733L44.3974 312.472L43.0899 308.549Z" fill="#92E3CD"/>
<path d="M51.6253 280.15L34.314 276.594L45.82 243.038L41.9393 222.662L39.6799 210.445L36.4373 193.437C36.4373 193.437 45.0459 188.908 50.9872 188.667C50.9349 188.667 60.2548 222.442 51.6253 280.15Z" fill="#92E3CD"/>
<path d="M72.7963 186.073C72.7963 186.073 79.1769 211.627 82.2103 228.854C85.2437 246.082 87.0742 274.052 87.0742 274.052L92.9841 271.123L87.0742 239.806C87.0742 239.806 88.7687 195.299 84.4069 187.14L72.7963 186.073Z" fill="#92E3CD"/>
<path d="M72.7963 186.073C72.7963 186.073 85.3483 205.298 87.3148 230.057L88.3608 224.472C88.3608 224.472 87.4403 203.374 76.0808 185.644L72.7963 186.073Z" fill="#263238"/>
<path opacity="0.1" d="M72.7963 186.073C72.7963 186.073 85.3483 205.298 87.3148 230.057L88.3608 224.472C88.3608 224.472 87.4403 203.374 76.0808 185.644L72.7963 186.073Z" fill="white"/>
<path d="M50.9349 187.119C50.9349 187.119 52.755 219.022 44.3661 235.34L43.1004 232.955C43.1004 232.955 49.7634 214.242 46.0397 188.667L50.9349 187.119Z" fill="#263238"/>
<path opacity="0.1" d="M50.9349 187.119C50.9349 187.119 52.755 219.022 44.3661 235.34L43.1004 232.955C43.1004 232.955 49.7634 214.242 46.0397 188.667L50.9349 187.119Z" fill="white"/>
<path d="M75.8088 198.614C75.8088 198.614 77.0326 186.198 76.5201 184.493C76.0076 182.788 51.7717 182.851 47.9015 186.073C44.0313 189.295 53.278 201.543 53.278 201.543C53.278 201.543 53.937 190.341 54.2508 189.608C54.5646 188.876 67.4199 187.443 69.4178 188.008C71.4156 188.573 75.8088 198.614 75.8088 198.614Z" fill="#92E3CD"/>
<path opacity="0.2" d="M75.8088 198.614C75.8088 198.614 77.0326 186.198 76.5201 184.493C76.0076 182.788 51.7717 182.851 47.9015 186.073C44.0313 189.295 53.278 201.543 53.278 201.543C53.278 201.543 53.937 190.341 54.2508 189.608C54.5646 188.876 67.4199 187.443 69.4178 188.008C71.4156 188.573 75.8088 198.614 75.8088 198.614Z" fill="black"/>
<path d="M66.3216 194.755C57.9536 193.709 55.5059 190.131 55.5059 190.131C58.9054 186.931 58.2883 182.203 57.4201 179.253C57.1504 178.318 56.8004 177.408 56.3741 176.533L66.3843 178.406C66.1536 179.789 66.0243 181.187 65.9973 182.59C65.96 183.643 66.0549 184.698 66.2797 185.728C66.9596 188.719 68.6646 188.761 68.6646 188.761C70.4428 192.035 66.3216 194.755 66.3216 194.755Z" fill="#E4897B"/>
<path opacity="0.2" d="M66.0183 182.621C65.981 183.675 66.0759 184.729 66.3007 185.759C62.3259 185.236 59.3134 182.056 57.4201 179.295C57.1504 178.36 56.8004 177.45 56.3741 176.575L66.3844 178.448C66.1612 179.828 66.0388 181.223 66.0183 182.621Z" fill="black"/>
<path d="M73.6854 162.622C73.6854 162.622 75.4636 157.507 71.0809 151.116C66.6981 144.725 57.4829 143.333 50.8512 151.116C50.8512 151.116 47.2425 151.335 45.0668 157.548C42.8912 163.762 45.5062 175.435 55.8406 177.82C66.1751 180.205 73.6854 162.622 73.6854 162.622Z" fill="#263238"/>
<path d="M59.554 152.036C68.1207 150.415 71.7399 154.473 74.0306 163.176C76.8966 174.054 75.9343 182.349 64.784 182.004C49.6274 181.565 45.3179 154.714 59.554 152.036Z" fill="#E4897B"/>
<path d="M68.3822 163.751C69.3015 164.898 70.355 165.931 71.5202 166.826C71.3335 167.229 71.0394 167.571 70.6702 167.817C70.301 168.062 69.8712 168.201 69.4282 168.218L68.3822 163.751Z" fill="#DE5753"/>
<path d="M63.0162 164.034C63.1626 164.735 62.9116 165.383 62.4409 165.488C61.9702 165.592 61.4786 165.101 61.3217 164.442C61.1648 163.783 61.4367 163.092 61.897 162.988C62.3572 162.883 62.8698 163.333 63.0162 164.034Z" fill="#263238"/>
<path d="M61.7087 163.03L63.1104 162.099C63.1104 162.099 62.6188 163.542 61.7087 163.03Z" fill="#263238"/>
<path d="M71.6876 162.036C71.834 162.737 71.5725 163.385 71.1123 163.479C70.6521 163.573 70.15 163.092 69.9931 162.433C69.8362 161.774 70.1081 161.094 70.5684 160.99C71.0286 160.885 71.5412 161.335 71.6876 162.036Z" fill="#263238"/>
<path d="M70.3801 161.021L71.7817 160.101C71.7817 160.101 71.2901 161.544 70.3801 161.021Z" fill="#263238"/>
<path d="M61.8133 158.145C61.1209 158.188 60.4477 158.39 59.8456 158.734C59.2435 159.079 58.7286 159.557 58.3406 160.132" stroke="#263238" stroke-width="0.707962" stroke-linecap="round" stroke-linejoin="round"/>
<path d="M67.922 156.607C68.4789 156.348 69.087 156.219 69.7009 156.228C70.3149 156.237 70.9189 156.384 71.4679 156.659" stroke="#263238" stroke-width="0.707962" stroke-linecap="round" stroke-linejoin="round"/>
<path d="M52.9119 168.228C52.9119 168.228 55.5792 160.435 53.9579 155.122C53.9579 155.122 69.6478 144.986 73.6959 162.046C73.6959 162.046 72.472 146.45 57.6921 148.888C42.9121 151.325 47.0019 172.841 55.8406 177.82C55.8406 177.82 51.2592 173.092 52.9119 168.228Z" fill="#263238"/>
<path d="M54.6482 169.766C54.3746 168.792 53.7278 167.966 52.8484 167.466C51.969 166.967 50.928 166.835 49.9517 167.098C47.3576 167.893 47.1275 173.573 53.9683 173.636C54.9516 173.636 55.3072 172.59 54.6482 169.766Z" fill="#E4897B"/>
<path d="M74.0097 168.887C74.0097 168.887 72.765 169.337 72.7964 170.289C72.8173 170.969 75.0871 171.167 74.0097 168.887Z" fill="#263238"/>
<path d="M53.9474 155.122C53.9474 155.122 62.3154 151.44 69.1144 158.145C69.1144 158.145 65.2024 151.021 54.9829 153.615C54.9829 153.615 53.1001 154.044 53.9474 155.122Z" fill="#263238"/>
<path d="M53.9474 155.122C54.8366 156.585 55.4144 158.217 55.6448 159.914C55.8752 161.611 55.7531 163.338 55.2863 164.985" stroke="#263238" stroke-width="0.5" stroke-linecap="round" stroke-linejoin="round"/>
<path d="M76.5933 169.745L73.9783 168.573L71.8863 173.155L74.5013 174.326C74.8506 174.48 75.1634 174.706 75.4194 174.989C75.6754 175.272 75.8686 175.606 75.9866 175.969C76.1046 176.331 76.2979 176.665 76.5538 176.948C76.8098 177.231 77.1227 177.457 77.4719 177.611L98.3919 187.025C98.5656 187.103 98.753 187.146 98.9435 187.152C99.1339 187.158 99.3236 187.125 99.5015 187.057C99.6795 186.989 99.8422 186.887 99.9803 186.755C100.118 186.624 100.229 186.467 100.306 186.293L102.639 181.063C102.717 180.889 102.76 180.702 102.766 180.511C102.771 180.321 102.739 180.131 102.671 179.953C102.603 179.775 102.501 179.612 102.369 179.474C102.238 179.336 102.081 179.225 101.906 179.148L80.9237 169.734C80.5765 169.58 80.2005 169.499 79.8202 169.499C79.4399 169.499 79.0639 169.58 78.7167 169.734C78.3808 169.876 78.0204 169.949 77.656 169.951C77.2917 169.953 76.9305 169.883 76.5933 169.745Z" fill="#92E3CD"/>
<path opacity="0.7" d="M87.6077 172.705L81.0179 169.755C80.6706 169.6 80.2946 169.52 79.9143 169.52C79.5341 169.52 79.1581 169.6 78.8108 169.755C78.4611 169.908 78.0836 169.987 77.702 169.987C77.3205 169.987 76.943 169.908 76.5933 169.755L73.9783 168.584L71.8863 173.165L74.5013 174.337C74.8506 174.49 75.1634 174.716 75.4194 174.999C75.6754 175.282 75.8686 175.616 75.9866 175.979C76.1046 176.342 76.2979 176.676 76.5538 176.959C76.8098 177.242 77.1227 177.467 77.4719 177.621L84.0513 180.571L87.6077 172.705Z" fill="white"/>
<path opacity="0.7" d="M92.3251 184.242L98.4861 186.993C98.6597 187.072 98.8472 187.115 99.0376 187.121C99.228 187.126 99.4177 187.094 99.5957 187.026C99.7736 186.958 99.9363 186.855 100.074 186.724C100.212 186.593 100.323 186.435 100.4 186.261L102.733 181.031C102.888 180.68 102.899 180.282 102.761 179.923C102.624 179.564 102.351 179.275 102.001 179.117L95.8397 176.366L92.3251 184.242Z" fill="white"/>
<path opacity="0.2" d="M41.9498 222.662L39.68 210.445L41.5419 208.614C41.5419 208.614 44.91 215.476 41.9498 222.662Z" fill="black"/>
<path d="M37.7553 222.526L43.1004 218.886C43.1004 218.886 48.9266 208.614 50.9349 208.614C52.9432 208.614 54.0729 217.882 53.7591 218.562C53.4453 219.242 48.0479 223.99 47.0019 223.928L40.6318 229.513L37.7553 222.526Z" fill="#E4897B"/>
<path d="M36.3851 193.437C31.814 193.74 14.2412 231.783 17.965 241.27C21.6888 250.758 44.1987 229.2 44.1987 229.2L41.3536 219.524L34.314 223.551C36.3677 220.366 38.6284 217.319 41.0816 214.43C41.0816 214.43 42.0648 206.522 41.0816 200.727C40.0984 194.933 36.3851 193.437 36.3851 193.437Z" fill="#92E3CD"/>
<path opacity="0.1" d="M36.3851 193.437C31.814 193.74 14.2412 231.783 17.965 241.27C21.6888 250.758 44.1987 229.2 44.1987 229.2L41.3536 219.524L34.314 223.551C36.3677 220.366 38.6284 217.319 41.0816 214.43C41.0816 214.43 42.0648 206.522 41.0816 200.727C40.0984 194.933 36.3851 193.437 36.3851 193.437Z" fill="black"/>
<path d="M134.709 351.048L142.355 357.01L143.401 356.749L135.755 349.751L129.856 334.94C129.657 332.848 129.427 330.682 129.113 328.507C128.987 327.628 128.789 326.634 128.59 325.745C128.391 324.856 128.151 324.009 127.921 323.162C127.45 321.457 126.958 319.783 126.456 318.109C124.49 311.53 122.398 305.034 120.253 298.528L117.712 247.724L111.321 248.132L115.254 299.156V299.512L115.348 299.794C117.607 306.342 119.825 312.921 121.896 319.501C122.408 321.143 122.942 322.796 123.381 324.438C123.632 325.254 123.852 326.07 124.061 326.885C124.27 327.701 124.396 328.392 124.532 329.228C125.055 332.534 125.4 336.007 125.755 339.427C126.969 352.188 127.847 365.023 128.705 377.857L126.31 388.662L128.004 401.287L126.31 410.785L127.23 411.047L129.709 401.078L128.255 389.855L130.044 384.886L136.132 405.356L138.224 435.91L141.362 435.722L139.688 404.927V404.75L139.625 404.54L132.816 380.482C132.199 368.307 131.519 356.152 130.588 343.967L134.709 351.048Z" fill="#263238"/>
<path d="M127.544 233.373L118.716 241.134L112.921 239.931C112.921 239.931 104.647 246.532 105.473 247.505C106.3 248.477 109.061 253.613 110.996 253.676C112.931 253.739 120.975 248.822 120.975 248.822L131.435 241.699L127.544 233.373Z" fill="#E4897B"/>
<path d="M169.489 157.81C164.814 161.408 160.767 165.755 157.512 170.676C152.167 178.782 145.514 207.568 141.822 214.273C138.13 220.978 122.073 236.396 122.073 236.396L126.885 247.389C126.885 247.389 149.269 234.691 158.558 222.045C167.846 209.399 177.386 169.086 177.386 169.086L169.489 157.81Z" fill="#92E3CD"/>
<path opacity="0.6" d="M169.489 157.81C164.814 161.408 160.767 165.755 157.512 170.676C152.167 178.782 145.514 207.568 141.822 214.273C138.13 220.978 122.073 236.396 122.073 236.396L126.885 247.389C126.885 247.389 149.269 234.691 158.558 222.045C167.846 209.399 177.386 169.086 177.386 169.086L169.489 157.81Z" fill="white"/>
<path d="M220.345 116.702L208.672 114.411C206.754 113.179 204.627 112.307 202.396 111.838C198.212 110.792 195.074 109.872 193.86 111.221C192.647 112.57 190.555 117.424 191.695 118.146C195.421 119.706 199.269 120.955 203.201 121.88C204.228 121.894 205.25 121.753 206.235 121.461L218.923 125.081L220.345 116.702Z" fill="#E4897B"/>
<path d="M210.638 427.762L219.498 428.693L219.948 423.557L221.161 409.582L212.301 408.641L210.952 424.08L210.638 427.762Z" fill="#E4897B"/>
<path d="M166.403 426.642H174.991L175.064 424.697L175.074 424.456L175.514 411.998L175.524 411.747L175.702 406.967H167.104L166.403 426.642Z" fill="#E4897B"/>
<path opacity="0.2" d="M212.301 408.641L210.952 424.08L219.948 423.557L221.161 409.582L212.301 408.641Z" fill="black"/>
<path opacity="0.2" d="M166.455 425.544H166.466L175.064 424.456H175.074L175.524 412.438H175.514L166.905 413.118L166.466 425.168L166.455 425.544Z" fill="black"/>
<path d="M176.183 426.119H165.723C165.552 426.122 165.386 426.183 165.254 426.291C165.121 426.399 165.028 426.549 164.991 426.716L163.296 434.362C163.261 434.525 163.259 434.694 163.289 434.859C163.32 435.023 163.382 435.18 163.474 435.32C163.565 435.46 163.683 435.581 163.822 435.675C163.96 435.769 164.116 435.835 164.28 435.868C164.37 435.879 164.461 435.879 164.551 435.868C167.93 435.816 170.388 435.607 174.624 435.607C177.239 435.607 185.084 435.879 188.725 435.879C192.365 435.879 192.804 432.322 191.329 431.987C184.708 430.554 179.718 428.546 177.606 426.653C177.215 426.303 176.707 426.113 176.183 426.119Z" fill="#263238"/>
<path d="M220.439 425.848H209.979C209.808 425.85 209.643 425.911 209.51 426.019C209.377 426.127 209.285 426.277 209.247 426.444L207.573 434.09C207.505 434.42 207.57 434.764 207.755 435.046C207.939 435.328 208.227 435.526 208.557 435.596H208.829C212.207 435.596 214.665 435.335 218.912 435.335C221.517 435.335 229.372 435.607 233.002 435.607C236.631 435.607 237.081 432.05 235.606 431.716C228.985 430.272 224.006 428.274 221.883 426.371C221.485 426.02 220.969 425.833 220.439 425.848Z" fill="#263238"/>
<path d="M221.977 422.27H209.373C209.373 422.27 210.419 313.8 196.821 277.169C195.858 289.282 194.729 301.844 193.683 312.315C193.013 318.789 192.354 324.364 191.737 328.601C187.762 355.922 177.752 423.358 177.752 423.358H165.305C165.305 423.358 166.779 358.736 168.254 331.885C169.876 302.744 170.576 238.676 170.65 233.216H216.234C220.575 256.165 231.705 347.962 221.977 422.27Z" fill="#263238"/>
<path d="M199.718 136.9C199.603 137.319 199.488 137.727 199.341 138.124C198.532 140.397 197.051 142.371 195.095 143.783C194.599 144.142 194.079 144.463 193.536 144.745C192.113 145.502 190.538 145.932 188.928 146.002C187.317 146.073 185.711 145.783 184.227 145.153C182.889 144.586 181.682 143.749 180.681 142.695C176.371 138.354 176.497 133.334 176.005 124.84C175.859 122.857 176.224 120.87 177.063 119.067C177.902 117.265 179.189 115.707 180.8 114.542C182.412 113.377 184.294 112.644 186.269 112.413C188.244 112.181 190.245 112.459 192.082 113.219C200.377 116.619 201.528 129.254 199.718 136.9Z" fill="#E4897B"/>
<path opacity="0.2" d="M195.063 143.783C194.568 144.142 194.047 144.463 193.505 144.745C192.081 145.502 190.507 145.932 188.896 146.002C187.286 146.073 185.68 145.783 184.195 145.153C184.573 144.133 185.083 143.166 185.712 142.277C188.909 141.872 192.155 142.395 195.063 143.783Z" fill="black"/>
<path d="M177.961 154.808C182.145 158.605 192.406 157.203 192.406 157.203C192.406 157.203 198.798 155.446 197.459 153.448C193.683 152.821 191.863 151.063 191.109 148.814C190.697 147.418 190.565 145.953 190.722 144.505C190.789 143.701 190.898 142.902 191.047 142.11L178.369 132.696C180.032 138.919 182.062 150.31 177.961 154.808Z" fill="#E4897B"/>
<path d="M189.635 109.548C189.635 109.548 195.147 107.236 198.986 110.845C202.218 113.899 200.116 118.595 202.072 122.497C204.028 126.399 196.967 128.951 196.967 128.951C196.967 128.951 195.095 132.968 191.852 132.716C191.852 132.716 189.206 135.928 189.635 139.233C190.063 142.538 185.294 145.174 178.808 145.091C172.323 145.007 174.917 140.907 174.917 140.907C173.039 138.739 171.521 136.285 170.42 133.637C169.106 130.416 168.479 126.957 168.579 123.48C168.518 121.675 168.819 119.875 169.461 118.187C170.104 116.499 171.077 114.956 172.323 113.648C176.706 108.784 186.967 106.378 189.635 109.548Z" fill="#263238"/>
<path d="M190.231 129.777C190.395 130.575 190.733 131.328 191.221 131.98C191.71 132.633 192.336 133.17 193.055 133.553C194.791 134.285 195.932 131.848 195.68 129.296C195.44 127.026 194.268 123.846 192.417 124.265C190.566 124.683 189.624 127.497 190.231 129.777Z" fill="#E4897B"/>
<path d="M200.44 110.698C202.992 113.836 195.116 135.739 183.327 137.81C171.539 139.882 167.637 140.708 169.384 131.806C169.384 131.806 165.775 124.15 168.558 116.116C168.558 116.116 167.198 115.907 167.512 113.219C167.825 110.531 177.762 103.282 184.174 102.665C190.586 102.048 197.626 109.83 197.626 109.83C197.626 109.83 198.934 108.836 200.44 110.698Z" fill="#92E3CD"/>
<path opacity="0.2" d="M196.779 277.117C195.816 289.229 194.687 301.823 193.641 312.294C192.093 297.179 190.189 286.395 190.189 286.395C190.189 286.395 188.4 284.93 183.505 277.117C178.61 269.303 183.505 254.722 183.505 254.722C183.39 268.268 196.779 277.117 196.779 277.117Z" fill="black"/>
<path d="M223.389 418.714L222.772 422.27H207.887V418.986L223.389 418.714Z" fill="#92E3CD"/>
<path d="M179.175 420.084L177.752 423.358H165.263L164.447 420.084H179.175Z" fill="#92E3CD"/>
<path d="M170.231 240.685V247.389L218.002 244.042V238.101L170.231 240.685Z" fill="#92E3CD"/>
<path opacity="0.2" d="M170.231 240.685V247.389L218.002 244.042V238.101L170.231 240.685Z" fill="white"/>
<path d="M220.335 235.151C220.38 235.753 220.304 236.357 220.112 236.929C219.919 237.501 219.614 238.028 219.214 238.479C218.814 238.931 218.328 239.298 217.784 239.558C217.24 239.818 216.649 239.966 216.046 239.994L171.215 242.18C170.873 242.199 170.531 242.148 170.209 242.03C169.887 241.912 169.593 241.731 169.344 241.496C169.094 241.261 168.895 240.978 168.758 240.665C168.621 240.351 168.55 240.012 168.547 239.67C168.265 212.38 158.924 162.747 165.305 157.81C171.905 152.705 204.279 150.028 204.279 150.028C205.798 153.598 207.125 157.246 208.253 160.958C208.389 161.429 208.546 161.9 208.672 162.381C210.534 168.521 212.092 175.153 213.442 181.857C213.536 182.307 213.63 182.768 213.714 183.217C216.9 200.39 219.111 217.729 220.335 235.151Z" fill="#92E3CD"/>
<path opacity="0.6" d="M220.335 235.151C220.38 235.753 220.304 236.357 220.112 236.929C219.919 237.501 219.614 238.028 219.214 238.479C218.814 238.931 218.328 239.298 217.784 239.558C217.24 239.818 216.649 239.966 216.046 239.994L171.215 242.18C170.873 242.199 170.531 242.148 170.209 242.03C169.887 241.912 169.593 241.731 169.344 241.496C169.094 241.261 168.895 240.978 168.758 240.665C168.621 240.351 168.55 240.012 168.547 239.67C168.265 212.38 158.924 162.747 165.305 157.81C171.905 152.705 204.279 150.028 204.279 150.028C205.597 153.082 206.81 156.408 207.929 159.923C208.034 160.268 208.149 160.613 208.253 160.969C208.358 161.325 208.546 161.91 208.672 162.391C210.408 168.103 211.873 174.243 213.159 180.477L213.442 181.868C213.536 182.318 213.63 182.778 213.714 183.228C216.9 200.397 219.11 217.732 220.335 235.151Z" fill="white"/>
<path d="M152.366 177.443C152.366 177.443 147.638 161.879 154.573 154.107C161.508 146.335 185.827 147.716 188.474 148.27C196.622 149.965 199.509 163.312 202.417 177.558C205.325 191.805 208.64 240.559 203.672 243.655C198.703 246.751 165.054 250.454 159.259 247.358C153.464 244.262 152.366 177.443 152.366 177.443Z" fill="#263238"/>
<path d="M147.951 176.952C147.951 176.952 143.234 161.084 150.159 153.072C157.083 145.059 181.423 146.534 184.059 147.099C192.208 148.835 192.814 159.201 195.063 184.044C199.049 228.143 202.605 242.306 197.647 245.465C192.689 248.624 160.639 251.741 154.845 248.54C149.05 245.339 147.951 176.952 147.951 176.952Z" fill="#92E3CD"/>
<path d="M192.877 155.185C192.877 155.185 194.614 148.375 204.279 150.028C204.279 150.028 198.316 149.955 198.578 169.64C198.839 189.326 205.994 215.476 205.994 215.476C205.994 215.476 214.676 215.079 216.883 202.631L217.929 206.407C217.929 206.407 216.569 224.576 203.525 228.174C203.599 228.143 197.678 165.32 192.877 155.185Z" fill="#263238"/>
<path opacity="0.2" d="M213.159 180.466C201.82 170.456 205.701 159.138 205.701 159.138L207.929 159.923C208.034 160.268 208.149 160.613 208.253 160.969C208.358 161.325 208.546 161.91 208.672 162.391C210.408 168.092 211.873 174.232 213.159 180.466Z" fill="black"/>
<path d="M255.533 134.934C253.346 120.353 221.015 115.405 213.316 114.432C212.033 118.34 211.612 122.48 212.082 126.566C212.082 126.566 235.47 133.009 235.669 134.662C235.868 136.315 208.159 147.287 204.289 149.986C204.289 149.986 202.427 154.107 205.45 162.182C207.971 168.898 210.983 170.749 210.983 170.749C210.983 170.749 258.022 151.461 255.533 134.934Z" fill="#92E3CD"/>
<path opacity="0.6" d="M255.533 134.934C253.346 120.353 221.015 115.405 213.316 114.432C212.033 118.34 211.612 122.48 212.082 126.566C212.082 126.566 235.47 133.009 235.669 134.662C235.868 136.315 208.159 147.287 204.289 149.986C204.289 149.986 202.427 154.107 205.45 162.182C207.971 168.898 210.983 170.749 210.983 170.749C210.983 170.749 258.022 151.461 255.533 134.934Z" fill="white"/>
</svg>
