<svg width="25" height="26" viewBox="0 0 25 26" fill="none" xmlns="http://www.w3.org/2000/svg">
<path d="M18.3317 16.14H17.1733L16.7627 15.7439C17.6791 14.6787 18.3488 13.4241 18.724 12.0697C19.0992 10.7154 19.1705 9.29482 18.9329 7.90967C18.2437 3.83119 14.8417 0.574273 10.7359 0.0754661C9.29245 -0.107236 7.82633 0.0428553 6.44976 0.514253C5.07319 0.985652 3.82265 1.76586 2.79383 2.79518C1.765 3.82451 0.985173 5.07566 0.514004 6.4529C0.0428345 7.83014 -0.107183 9.29697 0.0754294 10.7411C0.573994 14.849 3.82933 18.2526 7.90583 18.9421C9.2903 19.1799 10.7102 19.1085 12.0639 18.7331C13.4176 18.3578 14.6716 17.6877 15.7362 16.7708L16.1321 17.1816V18.3406L22.3642 24.5757C22.9654 25.1772 23.9479 25.1772 24.5491 24.5757C25.1503 23.9742 25.1503 22.9913 24.5491 22.3897L18.3317 16.14ZM9.5335 16.14C5.88224 16.14 2.93484 13.1912 2.93484 9.53813C2.93484 5.8851 5.88224 2.93627 9.5335 2.93627C13.1847 2.93627 16.1321 5.8851 16.1321 9.53813C16.1321 13.1912 13.1847 16.14 9.5335 16.14Z" fill="#8D8D8D"/>
</svg>
