<svg width="9" height="9" viewBox="0 0 9 9" fill="none" xmlns="http://www.w3.org/2000/svg">
<path d="M5.98333 5.21777C6.01667 4.94247 6.04167 4.66718 6.04167 4.38354C6.04167 4.0999 6.01667 3.82461 5.98333 3.54931H7.39167C7.45833 3.81626 7.5 4.09573 7.5 4.38354C7.5 4.67135 7.45833 4.95081 7.39167 5.21777M5.24583 7.53692C5.49583 7.07392 5.6875 6.57339 5.82083 6.05199H7.05C6.64632 6.74786 6.00588 7.27497 5.24583 7.53692ZM5.14167 5.21777H3.19167C3.15 4.94247 3.125 4.66718 3.125 4.38354C3.125 4.0999 3.15 3.82044 3.19167 3.54931H5.14167C5.17917 3.82044 5.20833 4.0999 5.20833 4.38354C5.20833 4.66718 5.17917 4.94247 5.14167 5.21777ZM4.16667 7.70376C3.82083 7.20323 3.54167 6.64847 3.37083 6.05199H4.9625C4.79167 6.64847 4.5125 7.20323 4.16667 7.70376ZM2.5 2.71508H1.28333C1.68277 2.01727 2.32277 1.48929 3.08333 1.23016C2.83333 1.69316 2.64583 2.19369 2.5 2.71508ZM1.28333 6.05199H2.5C2.64583 6.57339 2.83333 7.07392 3.08333 7.53692C2.32428 7.2751 1.68512 6.74782 1.28333 6.05199ZM0.941667 5.21777C0.875 4.95081 0.833333 4.67135 0.833333 4.38354C0.833333 4.09573 0.875 3.81626 0.941667 3.54931H2.35C2.31667 3.82461 2.29167 4.0999 2.29167 4.38354C2.29167 4.66718 2.31667 4.94247 2.35 5.21777M4.16667 1.05914C4.5125 1.55968 4.79167 2.11861 4.9625 2.71508H3.37083C3.54167 2.11861 3.82083 1.55968 4.16667 1.05914ZM7.05 2.71508H5.82083C5.69023 2.19854 5.49713 1.69987 5.24583 1.23016C6.0125 1.49294 6.65 2.02268 7.05 2.71508ZM4.16667 0.212402C1.8625 0.212402 0 2.08941 0 4.38354C0 5.48979 0.438987 6.55074 1.22039 7.33298C1.6073 7.7203 2.06663 8.02755 2.57215 8.23717C3.07768 8.44679 3.61949 8.55468 4.16667 8.55468C5.27174 8.55468 6.33154 8.11522 7.11294 7.33298C7.89435 6.55074 8.33333 5.48979 8.33333 4.38354C8.33333 3.83578 8.22556 3.29338 8.01616 2.78731C7.80677 2.28125 7.49986 1.82143 7.11294 1.4341C6.72603 1.04677 6.2667 0.739531 5.76118 0.529911C5.25566 0.320292 4.71384 0.212402 4.16667 0.212402Z" fill="#111111"/>
</svg>
