<svg width="9" height="11" viewBox="0 0 9 11" fill="none" xmlns="http://www.w3.org/2000/svg">
<path d="M8 9.24037H1V3.73447H8M6.5 0.230713V1.23179H2.5V0.230713H1.5V1.23179H1C0.445 1.23179 0 1.67726 0 2.23286V9.24037C0 9.50587 0.105357 9.7605 0.292893 9.94824C0.48043 10.136 0.734784 10.2414 1 10.2414H8C8.26522 10.2414 8.51957 10.136 8.70711 9.94824C8.89464 9.7605 9 9.50587 9 9.24037V2.23286C9 1.96736 8.89464 1.71273 8.70711 1.52499C8.51957 1.33726 8.26522 1.23179 8 1.23179H7.5V0.230713M3 4.73554H2V8.2393H3V4.73554Z" fill="#111111"/>
</svg>
