<svg width="20" height="24" viewBox="0 0 20 24" fill="none" xmlns="http://www.w3.org/2000/svg">
<path d="M0.221277 2.12674C0.15201 2.19555 0.0964025 2.28069 0.0582245 2.37639C0.0200464 2.4721 0.000189595 2.57613 0 2.68144V23.2653C0 23.4602 0.067249 23.647 0.186953 23.7848C0.306657 23.9226 0.469011 24 0.638298 24C0.807585 24 0.969939 23.9226 1.08964 23.7848C1.20935 23.647 1.2766 23.4602 1.2766 23.2653V17.7281C4.26383 14.9375 6.79574 16.3812 9.71702 18.0428C11.4319 19.0224 13.2798 20.073 15.2489 20.073C16.6926 20.073 18.2021 19.5098 19.7766 17.9399C19.846 17.8716 19.9018 17.787 19.9404 17.6917C19.9789 17.5965 19.9992 17.4928 20 17.3877V2.68144C20.0001 2.54052 19.965 2.40253 19.8989 2.28392C19.8328 2.16532 19.7385 2.0711 19.6271 2.0125C19.5158 1.95391 19.3921 1.93341 19.2709 1.95344C19.1498 1.97348 19.0361 2.03322 18.9436 2.12552C15.8585 5.20147 13.2755 3.72839 10.283 2.02266C7.31596 0.331625 3.93617 -1.57247 0.221277 2.12674ZM18.7234 17.0412C15.7362 19.833 13.2043 18.3881 10.283 16.7252C7.59575 15.1934 4.58404 13.4779 1.2766 15.9183V3.02675C4.26383 0.23489 6.79574 1.6798 9.71702 3.34022C12.4043 4.87207 15.416 6.5876 18.7234 4.15207V17.0412Z" fill="#111111"/>
</svg>
