<svg width="10" height="10" viewBox="0 0 10 10" fill="none" xmlns="http://www.w3.org/2000/svg">
<path d="M10 2.00215V2.33584C10 2.38009 9.98244 2.42253 9.95119 2.45382C9.91993 2.48511 9.87754 2.50269 9.83333 2.50269H9.33333V2.75296C9.33333 2.89117 9.2214 3.00322 9.08333 3.00322H0.916667C0.778604 3.00322 0.666667 2.89117 0.666667 2.75296V2.50269H0.166667C0.122464 2.50269 0.0800716 2.48511 0.0488155 2.45382C0.0175595 2.42253 0 2.38009 0 2.33584V2.00215C2.38363e-07 1.96914 0.00978079 1.93688 0.0281042 1.90943C0.0464276 1.88199 0.0724704 1.86061 0.102938 1.84799L4.93627 0.0126859C4.97708 -0.00422864 5.02292 -0.00422864 5.06373 0.0126859L9.89706 1.84799C9.92753 1.86061 9.95357 1.88199 9.9719 1.90943C9.99022 1.93688 10 1.96914 10 2.00215ZM9.5 8.34228H0.5C0.223854 8.34228 0 8.56637 0 8.84282V9.17651C0 9.22076 0.0175595 9.2632 0.0488155 9.29449C0.0800716 9.32578 0.122464 9.34335 0.166667 9.34335H9.83333C9.87754 9.34335 9.91993 9.32578 9.95119 9.29449C9.98244 9.2632 10 9.22076 10 9.17651V8.84282C10 8.56637 9.77615 8.34228 9.5 8.34228ZM1.66667 3.33692V7.34121H0.916667C0.778604 7.34121 0.666667 7.45326 0.666667 7.59148V8.00859H9.33333V7.59148C9.33333 7.45326 9.2214 7.34121 9.08333 7.34121H8.33333V3.33692H7V7.34121H5.66667V3.33692H4.33333V7.34121H3V3.33692H1.66667Z" fill="#111111"/>
</svg>
